<?xml version="1.0" encoding="utf-8"?>
<!-- Generator: Adobe Illustrator 22.0.0, SVG Export Plug-In . SVG Version: 6.00 Build 0)  -->
<svg version="1.1" id="Layer_1" xmlns="http://www.w3.org/2000/svg" xmlns:xlink="http://www.w3.org/1999/xlink" x="0px" y="0px"
	 viewBox="0 0 581.7 745.3" style="enable-background:new 0 0 581.7 745.3;" xml:space="preserve">
<style type="text/css">
	.st0{fill:#008A80;}
</style>
<g transform="translate(600 600) scale(0.69 0.69) rotate(0) translate(-600 -600)">
	<title>EXPORT - UP</title>
	<path class="st0" d="M151.9,659.7c-13.1,0-25.3-6.7-32.3-17.8l-251.3-396.4c-99.1-156.6-52.5-363.9,104.1-463s363.9-52.5,463,104.1
		c69.4,109.6,69.4,249.3,0,358.9L184.3,641.9C177.3,653,165.1,659.7,151.9,659.7z M151.9-211c-153-0.1-277.2,123.9-277.3,277
		c0,52.5,14.9,104,43,148.4l234.3,369.6l234.3-369.6C468.1,85,429.6-86.2,300.3-168.1C255.9-196.2,204.5-211.1,151.9-211L151.9-211z
		 M151.9,248.7C51.2,248.7-30.5,167-30.5,66.3c0-100.8,81.7-182.4,182.4-182.4c100.8,0,182.4,81.7,182.4,182.4
		C334.3,167,252.6,248.6,151.9,248.7z M151.9-57.8C83.4-57.8,27.9-2.2,27.9,66.3c0,68.5,55.5,124.1,124.1,124.1
		c68.5,0,124.1-55.5,124.1-124.1C275.9-2.2,220.4-57.7,151.9-57.8z"/>
	<path class="st0" d="M309.1,523.5l-35.3,55.7c158,16,240.3,60.1,240.3,83c0,31.4-137.5,89-362.1,89s-362.1-57.7-362.1-89
		c0-22.9,82.3-66.9,240.3-83l-35.3-55.7c-136.9,17.6-264.3,60.6-264.3,138.6c0,102,218.5,148.4,421.5,148.4s421.5-46.4,421.5-148.4
		C573.4,584.1,446,541.1,309.1,523.5z"/>
</g>
</svg>
