<?xml version="1.0" encoding="utf-8"?>
<!-- Generator: Adobe Illustrator 22.0.0, SVG Export Plug-In . SVG Version: 6.00 Build 0)  -->
<svg version="1.1" id="Layer_1" xmlns="http://www.w3.org/2000/svg" xmlns:xlink="http://www.w3.org/1999/xlink" x="0px" y="0px"
	 viewBox="0 0 828 748.5" style="enable-background:new 0 0 828 748.5;" xml:space="preserve">
<g transform="translate(600 600) scale(0.69 0.69) rotate(0) translate(-600 -600)">
	<g>
		<path d="M197.6-118.5c-9.5-5.3-21.9-1.7-27.1,8.1L13,181.8c-5.3,9.7-1.6,21.9,8.1,27.1c3,1.6,6.3,2.4,9.5,2.4
			c7.1,0,13.9-3.8,17.6-10.6L205.7-91.4C211-101.2,207.4-113.3,197.6-118.5z"/>
		<path d="M916.7,477.7c24.1-77.9,16.5-160.6-21.5-232.7c-38-72.1-101.8-125.1-179.5-149.2c-0.1-0.1-0.2-0.1-0.3-0.1
			c-0.1-0.1-0.2,0-0.2-0.1c-20.8-6.4-42.3-10.7-63.7-12.5l-7.5-0.6c-0.2,0-0.4-0.1-0.6-0.1c-49.8-2.8-99,7.5-144.1,28l16.1-29.8
			C557.7,2.6,551-94,498.2-165.5c-20.1-27.3-45.5-49.3-75.3-65.5l-19.8-10.8c-53.9-29.3-116-35.8-174.8-18.3
			c-58.9,17.5-107.5,56.8-136.7,110.7l-166.6,307l0,0.1c0,0.1,0,0.1,0,0.1l-166.7,307c-42.4,78.1-35.6,174.7,17.2,246.2
			c7.1,9.6,14.8,18.5,23.2,26.9c0,0,0.1,0,0.1,0.1c15.3,15.1,32.8,28.1,52,38.4l19.8,10.8c34.1,18.5,71.4,27.9,109.2,27.9
			c22,0,44.1-3.2,65.7-9.6c58.7-17.4,107.2-56.5,136.5-110.2c43.8,56.8,104.5,97.1,175.4,112.5c0.1,0,0.2,0.1,0.3,0.2
			c0.3,0,0.5,0,0.9,0.1c21.1,4.5,42.7,7,64.3,7c98.9,0,188.6-49.4,245-125.8C784.3,672.6,881.7,590.6,916.7,477.7z M640.9,122.4
			L640.9,122.4l6.8,0.5c12.3,1.1,24.5,3.3,36.5,6.1l-50,161.6c-40.3-39.1-90.4-67-146.7-79.3c-0.1,0-0.2-0.1-0.3-0.2
			c-0.1,0-0.2,0-0.3,0c-12.9-2.8-26-4.5-39.2-5.6l15-27.6C513.9,138.2,577.1,118.3,640.9,122.4z M146.9,675.8
			c-49.9,92-165.4,126.2-257.4,76.3l-19.8-10.8c-15.8-8.6-30.3-19.3-42.9-31.8c-6.9-6.9-13.4-14.4-19.2-22.2
			c-43.6-59-49.1-138.9-14.1-203.4l131.1-241.4c5.6,14.2,13,28.8,24,43.7c28.4,38.2,72.9,74.8,125.1,103.1
			C93.1,400,113,408.6,132.9,416c-3.1,9.6-6.8,18.9-8.9,28.8c-16,73.7-4.3,148.8,32.3,214L146.9,675.8z M147.6,378.9
			c-18.4-6.8-36.8-14.8-55-24.7c-47.3-25.6-87.1-58.3-112.8-92.7c-24.4-33.1-31.5-63.2-19.8-84.6c0-0.1,0-0.1,0-0.2l166.6-306.9
			c24.1-44.5,64.2-76.9,112.9-91.4c48.7-14.3,99.9-9.1,144.5,15.1l19.8,10.7c24.6,13.4,45.6,31.6,62.1,54
			c43.6,59.1,49.1,138.9,14.2,203.4L402,205.7C292,213.1,194.8,281.4,147.6,378.9z M346.8,762.8c-60.8-18-113.1-55.7-147.8-109.7
			c-38.4-59.7-51.1-130.6-36.1-199.9c25.6-118,131.7-205.8,252.2-209l6.9-0.1c12.4,0,24.7,1.2,36.8,2.9L346.8,762.8z M681.6,566
			c-26.3,121.2-135.3,209.1-259.1,209.1c-12.4,0-24.7-1.2-36.9-2.9l112.1-515.7c60.8,18.1,113,55.7,147.8,109.6
			C683.9,425.8,696.7,496.8,681.6,566z M695.7,642.9c10.6-21.6,19.7-44.2,25-68.4c17.4-79.7,2.6-161.4-41.5-230c0-0.1,0-0.1-0.1-0.2
			c-4.2-6.5-9.6-11.9-14.3-18L722,141.7c59,23.3,107.8,65.3,137.8,122c33,62.7,39.7,134.5,18.7,202.3
			C851.5,552.8,782,618.9,695.7,642.9z"/>
	</g>
</g>
</svg>
