<?xml version="1.0" encoding="utf-8"?>
<!-- Generator: Adobe Illustrator 22.0.0, SVG Export Plug-In . SVG Version: 6.00 Build 0)  -->
<svg version="1.1" id="Layer_1" xmlns="http://www.w3.org/2000/svg" xmlns:xlink="http://www.w3.org/1999/xlink" x="0px" y="0px"
	 viewBox="0 0 776 672.8" style="enable-background:new 0 0 776 672.8;" xml:space="preserve">
<g transform="translate(600 600) scale(0.69 0.69) rotate(0) translate(-600 -600)">
	<g>
		<path d="M780-106.4v-144.4c0-11.3-7.5-18.8-18.8-18.8h-450c-11.2,0-18.8,7.5-18.8,18.8v144.4L219.4,21.1c-1.9,3.8-1.9,5.6-1.9,9.4
			v549.4C153.8,431.7,1.9,337.9-159.3,349.2c-9.4,1.9-16.9,11.2-16.9,20.6c0,0,0,0,0,1.9c9.4,58.1,33.8,112.5,69.4,161.2
			c-106.9,37.5-159.4,142.5-161.3,146.3c-3.8,9.4,0,20.6,7.5,24.4c3.8,1.9,5.6,1.9,9.4,1.9H836.3c11.2,0,18.8-7.5,18.8-18.8V30.4
			c0-3.8,0-5.6-1.9-9.4L780-106.4z M330-232.1h37.5v75H405v-75h37.5v75H480v-75h37.5v75H555v-75h37.5v75H630v-75h37.5v75H705v-75
			h37.5v112.5H330V-232.1z M210,664.2c-76.9-11.2-292.5-63.8-345-279.4C-69.3,384.8,129.4,403.6,210,664.2z M-78.7,562.9
			c45,46.9,99.4,82.5,159.4,105h-298.1C-183.7,619.2-136.8,581.7-78.7,562.9z M817.5,667.9H255V36.1l67.5-118.1H750l67.5,118.1
			L817.5,667.9L817.5,667.9z"/>
		<path d="M705,292.9c-3.8,0-7.5,0-13.1,1.9l63.8-63.8c28.1-28.1,28.1-73.1,0-101.2s-73.1-28.1-101.3,0l-150,150
			c-13.1,13.1-22.5,31.9-22.5,50.6c0,13.1,3.8,26.3,11.2,37.5H367.5c-41.3,0-75,33.7-75,75c0,22.5,9.4,43.1,26.3,56.3
			c-31.9,26.3-35.6,75-7.5,105c15,16.9,35.6,26.3,56.3,26.3H555c41.3,0,75-33.7,75-75c0-22.5-9.4-43.1-26.3-56.2
			c31.9-26.3,35.6-73.1,7.5-105c-3.8-3.8-7.5-7.5-11.3-9.4c1.9-1.9,3.8-1.9,3.8-3.8l26.3-26.3c0,3.8-1.9,7.5-1.9,13.1v187.5
			c0,41.3,33.8,75,75,75c41.3,0,75-33.7,75-75V367.9C780,326.7,746.3,292.9,705,292.9z M742.5,367.9v75h-75v-75
			c0-20.6,16.9-37.5,37.5-37.5C725.7,330.4,742.5,347.3,742.5,367.9z M680.7,156.1c13.1-13.1,35.6-13.1,48.8,1.9
			c13.1,13.1,13.1,33.7,0,46.9l-61.9,61.9l-48.8-48.7L680.7,156.1z M330,442.9c0-20.6,16.9-37.5,37.5-37.5h75v75h-75
			C346.9,480.4,330,463.6,330,442.9z M330,555.4c0-20.6,16.9-37.5,37.5-37.5h75v75h-75C346.9,592.9,330,576.1,330,555.4z
			 M592.5,555.4c0,20.6-16.9,37.5-37.5,37.5h-75v-75h75C575.7,517.9,592.5,534.8,592.5,555.4z M480,480.4v-75h75
			c20.6,0,37.5,16.9,37.5,37.5s-16.9,37.5-37.5,37.5H480z M579.4,354.8c-13.1,13.1-35.6,13.1-48.8-1.9c-13.1-13.1-13.1-33.7,0-46.9
			l61.9-61.9l48.7,48.7L579.4,354.8z M742.5,555.4c0,20.6-16.9,37.5-37.5,37.5c-20.6,0-37.5-16.9-37.5-37.5v-75h75V555.4z"/>
		<path d="M311.3,86.7c11.2,0,18.8-7.5,18.8-18.8V36.1l33.7-50.6c5.6-9.4,3.8-20.6-5.6-26.2s-20.6-3.8-26.3,5.6l-37.5,56.3
			c0,1.9-1.9,5.6-1.9,9.4v37.5C292.5,79.2,300,86.7,311.3,86.7z"/>
		<path d="M536.3,49.2h112.5c11.2,0,18.8-7.5,18.8-18.7s-7.5-18.8-18.8-18.8H536.3c-11.3,0-18.8,7.5-18.8,18.8S525,49.2,536.3,49.2z
			"/>
		<path d="M705,30.4c0,11.3,7.5,18.7,18.8,18.7h37.5c11.2,0,18.8-7.5,18.8-18.7s-7.5-18.8-18.8-18.8h-37.5
			C712.5,11.7,705,19.2,705,30.4z"/>
		<path d="M311.3,199.2c11.2,0,18.8-7.5,18.8-18.8v-37.5c0-11.3-7.5-18.8-18.8-18.8s-18.8,7.5-18.8,18.8v37.5
			C292.5,191.7,300,199.2,311.3,199.2z"/>
	</g>
</g>
</svg>
