<?xml version="1.0" encoding="utf-8"?>
<!-- Generator: Adobe Illustrator 22.0.0, SVG Export Plug-In . SVG Version: 6.00 Build 0)  -->
<svg version="1.1" id="Layer_1" xmlns="http://www.w3.org/2000/svg" xmlns:xlink="http://www.w3.org/1999/xlink" x="0px" y="0px"
	 viewBox="0 0 728.6 480.2" style="enable-background:new 0 0 728.6 480.2;" xml:space="preserve">
<style type="text/css">
	.st0{fill:#008A80;}
</style>
<path class="st0" d="M372.6,0c-63.8,0-115.9,52.1-115.9,115.9c0,63.8,52.1,115.9,115.9,115.9s115.9-52.1,115.9-115.9
	S436.4,0,372.6,0z M372.6,33.1c45.9,0,82.8,36.9,82.8,82.8s-36.9,82.8-82.8,82.8s-82.8-36.9-82.8-82.8S326.7,33.1,372.6,33.1z
	 M149,124.1c-45.5,0-82.8,37.2-82.8,82.8c0,45.5,37.3,82.8,82.8,82.8s82.8-37.2,82.8-82.8C231.8,161.4,194.6,124.1,149,124.1z
	 M596.2,124.1c-45.5,0-82.8,37.2-82.8,82.8c0,45.5,37.3,82.8,82.8,82.8c45.5,0,82.8-37.2,82.8-82.8
	C679,161.4,641.7,124.1,596.2,124.1z M149,157.2c27.6,0,49.7,22,49.7,49.7c0,27.6-22,49.7-49.7,49.7s-49.7-22-49.7-49.7
	C99.4,179.3,121.4,157.2,149,157.2z M596.2,157.2c27.6,0,49.7,22,49.7,49.7c0,27.6-22,49.7-49.7,49.7c-27.6,0-49.7-22-49.7-49.7
	C546.5,179.3,568.5,157.2,596.2,157.2z M372.6,264.8c-73.5,0-124.6,33.1-155.5,72.2c-30.9,39-43.2,82.1-43.2,109.9v16.6
	c-0.1,8.7,7.8,16.8,16.6,16.8s16.7-8,16.6-16.8v-16.6c0-16.7,10.1-56.6,36-89.2c25.8-32.6,65.8-59.7,129.6-59.7
	s103.8,27.1,129.6,59.7c25.8,32.6,36,72.6,36,89.2v16.6c-0.1,8.7,7.8,16.8,16.6,16.8s16.7-8,16.6-16.8v-16.6
	c0-27.8-12.3-70.9-43.2-109.9C497.2,298,446.1,264.8,372.6,264.8z M140.8,322.8C63.1,322.8,0,385.8,0,463.5
	c-0.1,8.7,7.8,16.8,16.6,16.8s16.7-8,16.6-16.8c0-59.9,47.7-107.6,107.6-107.6h8.3c8.7,0.1,16.8-7.8,16.8-16.6
	c0-8.7-8-16.7-16.8-16.6L140.8,322.8z M578,322.8c-8.7,0.4-16.2,8.7-15.8,17.3c0.4,8.7,8.7,16.2,17.3,15.8h8.3
	c59.9,0,107.6,47.7,107.6,107.6c-0.1,8.7,7.8,16.8,16.6,16.8s16.7-8,16.6-16.8c0-77.7-63.1-140.7-140.8-140.7
	C584.7,322.8,581.2,322.8,578,322.8L578,322.8z"/>
</svg>
