<?xml version="1.0" encoding="utf-8"?>
<!-- Generator: Adobe Illustrator 22.0.0, SVG Export Plug-In . SVG Version: 6.00 Build 0)  -->
<svg version="1.1" id="Layer_1" xmlns="http://www.w3.org/2000/svg" xmlns:xlink="http://www.w3.org/1999/xlink" x="0px" y="0px"
	 viewBox="0 0 745.2 745.2" style="enable-background:new 0 0 745.2 745.2;" xml:space="preserve">
<style type="text/css">
	.st0{fill:#008A80;}
</style>
<g transform="translate(600 600) scale(0.69 0.69) rotate(0) translate(-600 -600)">
	<g transform="translate(0,-992.3622)">
		<path class="st0" d="M197.9,722.8c-11-0.2-17,8.3-19.4,14.4l-33.8,117.5c-26,8.1-50.8,18.1-74.4,30.6l-106.9-59.4
			c-7.6-4-17.8-2.4-23.8,3.8l-102.5,102.5c-6,6.1-7.3,16.3-3.1,23.8l58.8,106.3c-12.6,23.7-23.2,48.8-31.3,75l-116.9,33.1
			c-8.3,2.4-14.5,10.7-14.4,19.4v145.6c-0.1,8.6,6.1,16.9,14.4,19.4l116.9,33.1c8.1,26.3,19.2,51.2,31.9,75l-59.4,106.3
			c-4.5,7.6-3.1,18.2,3.1,24.4l102.5,102.5c6.1,6,16.3,7.3,23.8,3.1l106.9-59.4c23.6,12.6,48.4,23.2,74.4,31.3l33.8,116.9
			c2.2,8.5,10.6,15,19.4,15h145c8.8,0,17.2-6.5,19.4-15l33.8-116.9c26-8.1,50.8-18.7,74.4-31.3l106.9,59.4
			c7.5,4.2,17.6,2.9,23.8-3.1l102.5-102.5c6.3-6.2,7.6-16.8,3.1-24.4l-59.4-106.3c12.7-23.8,23.8-48.7,31.9-75l116.9-33.1
			c8.3-2.4,14.5-10.7,14.4-19.4v-145.6c0.1-8.6-6.1-16.9-14.4-19.4l-116.9-33.1c-8.1-26.2-18.6-51.3-31.3-75l58.8-106.3
			c4.2-7.5,2.9-17.6-3.1-23.8L601.1,829.7c-6-6.2-16.2-7.8-23.8-3.8l-106.9,59.4c-23.5-12.6-48.4-22.6-74.4-30.6l-33.8-117.5
			c-2.4-8.3-10.7-14.5-19.4-14.4H197.9z M212.3,762.8h116.3L359.8,874c1.9,6.5,7.2,11.9,13.8,13.8c31.2,8.6,61.1,21.2,88.8,36.9
			c5.9,3.3,13.5,3.3,19.4,0l101.9-56.3l81.3,81.3l-56.9,101.9c-3.3,5.9-3.3,13.5,0,19.4c15.7,27.6,28.3,57,36.9,88.1
			c1.9,6.5,7.2,11.9,13.8,13.8l111.9,31.9v115.6l-111.9,31.9c-6.5,1.9-11.9,7.2-13.8,13.8c-8.6,31.2-21.2,60.5-36.9,88.1
			c-3.5,6-3.5,14,0,20l56.3,101.9l-80.6,80.6l-101.9-56.3c-5.9-3.3-13.5-3.3-19.4,0c-27.6,15.7-57.6,28.3-88.8,36.9
			c-6.5,1.9-11.9,7.2-13.8,13.8l-31.9,111.9h-115l-31.9-111.9c-1.9-6.5-7.2-11.9-13.8-13.8c-31.2-8.6-61.1-21.2-88.8-36.9
			c-5.9-3.3-13.5-3.3-19.4,0l-101.9,56.3l-80.6-80.6l56.3-101.9c3.5-6,3.5-14,0-20c-15.7-27.6-28.3-57-36.9-88.1
			c-1.9-6.5-7.2-11.9-13.8-13.8l-111.9-31.9v-115.6l111.9-31.9c6.5-1.9,11.9-7.2,13.8-13.8c8.6-31.2,21.2-60.5,36.9-88.1
			c3.3-5.9,3.3-13.5,0-19.4l-56.9-101.9l81.3-81.3l101.9,56.3c5.9,3.3,13.5,3.3,19.4,0c27.6-15.7,57.6-28.3,88.8-36.9
			c6.5-1.9,11.9-7.2,13.8-13.8L212.3,762.8z M270.4,1062.8c-110.2,0-200,89.8-200,200s89.8,200,200,200s200-89.8,200-200
			S380.7,1062.8,270.4,1062.8z M270.4,1102.8c88.6,0,160,71.4,160,160c0,88.6-71.4,160-160,160s-160-71.4-160-160
			C110.4,1174.2,181.8,1102.8,270.4,1102.8z"/>
	</g>
</g>
</svg>
