<?xml version="1.0" encoding="utf-8"?>
<!-- Generator: Adobe Illustrator 22.0.0, SVG Export Plug-In . SVG Version: 6.00 Build 0)  -->
<svg version="1.1" id="Layer_1" xmlns="http://www.w3.org/2000/svg" xmlns:xlink="http://www.w3.org/1999/xlink" x="0px" y="0px"
	 viewBox="0 0 695.7 753.5" style="enable-background:new 0 0 695.7 753.5;" xml:space="preserve">
<style type="text/css">
	.st0{fill:none;}
	.st1{fill:#008A80;}
</style>
<g transform="translate(600 600) scale(0.69 0.69) rotate(0) translate(-600 -600)">
	<g>
		<g>
			<path class="st0" d="M523.3,306.6c59,0.1,122.7,0.3,191,0.5C711.4,201.8,674.5,104.9,614.1,27c-26.9,58.5-66.8,123.2-99.2,172.3
				C519.9,233.8,522.7,269.7,523.3,306.6z"/>
		</g>
		<g>
			<path class="st0" d="M-8.4,133.2c62.2,19.1,107.6,77.1,107.6,145.5c0,8.1-1.4,17.3-3.9,27.3c38.2,0,80.7,0.1,127.7,0.1v-252
				c-69.7-0.8-137.1-8.4-198.7-22.2C11.2,62.9,0.2,96.9-8.4,133.2z"/>
		</g>
		<g>
			<path class="st0" d="M34.3,631.6c46.4,98.1,113.9,162.3,188.7,168.5v-189C156.8,611.9,92.9,618.9,34.3,631.6z"/>
		</g>
		<g>
			<path class="st0" d="M-205.3,278.7c0-84,68.3-152.3,152.2-152.3c7.4,0,14.6,0.7,21.7,1.7c8.7-36.2,19.9-70.3,33-101.7
				C-39,16.2-76.7,3.1-110.7-12.5c-80.5,83.4-131,195.7-134.5,319.6c8.1-0.2,21.5-0.4,44-0.6C-203.8,296.3-205.3,286.9-205.3,278.7z
				"/>
		</g>
		<g>
			<path class="st0" d="M-9.2,504.6c8.7,37.5,20,72.6,33.4,104.6c61.7-13.8,129-21.3,198.7-22.1v-257c-46.5-0.1-91.9-0.1-135.2-0.1
				C66.9,386.5,22.3,457.8-9.2,504.6z"/>
		</g>
		<g>
			<path class="st0" d="M340.4,788.8c84.4-19.1,160.4-60.4,221.6-117.5c-31.5-13.8-66.3-25.3-103.5-34.5
				C427.2,703.6,386.5,756.4,340.4,788.8z"/>
		</g>
		<g>
			<path class="st0" d="M468.3,614.5c40.4,10.2,78,23.2,112,38.7c80.9-84,131.4-197.2,134.2-322.1c-57.2-0.2-122.2-0.3-191-0.5
				C522.2,436.4,501.8,534.2,468.3,614.5z"/>
		</g>
		<g>
			<path class="st0" d="M246.9,800.1c74.8-6.2,142.3-70.4,188.7-168.6c-58.6-12.7-122.5-19.7-188.7-20.4L246.9,800.1L246.9,800.1z"
				/>
		</g>
		<g>
			<path class="st0" d="M-26.9,530.4c-9.2,13.1-15.4,21.6-16.5,23.1l-9.7,13.1l-9.7-13.1c-4.8-6.5-97.9-133.5-131-223.3
				c-24.4,0.1-42.1,0.3-51.6,0.5c2.6,125.2,53.4,238.8,134.6,322.9c34-15.6,71.8-28.7,112.4-39C-9.3,588.3-18.9,560.2-26.9,530.4z"
				/>
		</g>
		<g>
			<path class="st0" d="M246.9,306.1c73,0.1,156.7,0.3,252.4,0.5c-0.4-26.3-2-52.1-4.7-77.2c-18.7,27.3-32.1,45.5-34,48.2l-9.7,13.1
				l-9.7-13.1c-5.1-6.9-88.7-120.9-141.4-225.4c-17.5,1.1-35.1,1.7-53,1.9V306.1z"/>
		</g>
		<g>
			<path class="st0" d="M129.9-147.9C45.2-129-31.1-87.7-92.4-30.6C-60.8-16.7-25.9-5,11.5,4.2C42.8-62.8,83.6-115.6,129.9-147.9z"
				/>
		</g>
		<g>
			<path class="st0" d="M445.7,609.1c32.6-77.9,52.5-174.2,53.7-278.5c-82-0.2-168.5-0.3-252.5-0.4v256.9
				C316.6,587.8,384,595.4,445.7,609.1z"/>
		</g>
		<g>
			<path class="st0" d="M129.9,789.1c-46.3-32.3-87.1-85.2-118.4-152.1c-37.3,9.3-72.2,20.9-103.9,34.8
				C-31.1,728.9,45.2,770.1,129.9,789.1z"/>
		</g>
		<path class="st1" d="M624.9,2c12-29.7,19.5-56.8,19.5-78c0-106.7-86.8-193.5-193.5-193.5c-68.2,0-128.1,35.5-162.6,88.9
			c-0.2,0.2-0.3,0.5-0.4,0.7c-16.9-3.5-38.3-5.4-52.6-5.5c-0.2,0-0.3,0-0.4,0v-0.1c0,0-0.1,0-0.1,0c-0.1,0-0.2,0-0.3,0
			c-278,0-504.1,226-504.1,504c0,278,226.2,504,504.1,504c0.1,0,0.2,0,0.3,0c0,0,0.1,0,0.1,0c0.2,0,0.3,0,0.5,0
			c277.6-0.5,503.2-225.8,503.2-502.7C738.7,199.3,696,88.6,624.9,2z M129.9-148.9C83.6-116.6,42.8-62.8,11.5,4.2
			C-25.9-5-60.8-16.7-92.4-30.6C-31.1-87.7,45.2-130,129.9-148.9z M-110.7-12.5c34,15.6,71.8,28.7,112.4,39
			c-13.1,31.4-24.2,65.4-33,101.7c-7.1-1-14.3-1.7-21.7-1.7c-84,0-152.3,68.3-152.3,152.3c0,8.2,1.5,17.7,4.1,27.8
			c-22.5,0.2-35.9,0.4-44,0.6C-241.8,183.1-191.2,70.9-110.7-12.5z M-13.6,156.7c51.4,16.7,88.8,65,88.8,122c0,7.7-1.8,17-4.7,27.3
			c-2.1,7.5-5,15.5-8.4,24C44.8,373.1,12.9,426.9-16,471.4c-6.4,9.8-12.6,19.1-18.5,27.8c-6.7,9.9-13,18.9-18.6,26.7
			c-32.7-46-89.6-132.4-115.1-195.8c-3.4-8.4-6.2-16.4-8.3-23.8c-3-10.4-4.8-19.8-4.8-27.7c0-70.7,57.5-128.3,128.3-128.3
			c5.6,0,11.1,0.5,16.5,1.2C-28.7,152.6-21,154.3-13.6,156.7z M-245.3,330.8c9.4-0.2,27.2-0.4,51.6-0.5
			c33.1,89.8,126.2,216.8,131,223.3l9.6,13.1l9.7-13.1c1.1-1.5,7.4-10,16.5-23.1c8,29.7,17.5,57.9,28.5,84.2
			c-40.6,10.3-78.3,23.4-112.4,39C-191.9,569.5-242.7,456-245.3,330.8z M-92.4,671.7c31.6-13.9,66.6-25.5,103.9-34.8
			c31.3,67,72.1,118.7,118.4,151C45.2,769-31.1,728.9-92.4,671.7z M222.9,800.1c-74.7-6.2-142.3-70.4-188.7-168.5
			c58.6-12.7,122.5-19.8,188.7-20.5V800.1z M222.9,587.1c-69.7,0.8-137.1,8.4-198.7,22.1c-13.4-32-24.7-67.1-33.4-104.6
			C22.3,457.8,67,386.5,87.7,330c43.3,0,88.8,0.1,135.2,0.1L222.9,587.1L222.9,587.1z M222.9,306.1c-47-0.1-89.4-0.1-127.7-0.1
			c2.5-10,3.9-19.2,3.9-27.3c0-68.4-45.4-126.4-107.6-145.5C0.2,96.9,11.2,62.9,24.2,31.9c61.7,13.8,129,21.4,198.7,22.2V306.1z
			 M222.9,30.1C156.7,29.3,92.9,22.2,34.3,9.5C80.7-88.6,148.2-152.8,222.9-159V30.1z M296.7-146c3.3-7.2,7-14.1,11.2-20.7
			c2.3-3.6,4.7-7,7.2-10.4c30.9-41.5,80.2-68.5,135.8-68.5c93.5,0,169.5,76,169.5,169.5c0,15.8-4.9,35.6-13,57.7
			c-3,8-6.4,16.4-10.1,24.9c-22.3,50.9-57.2,109.4-88.3,157.7c-6.6,10.2-13,20-19.1,29.1c-16.2,24.3-30.2,44.3-39,56.6
			c-23.2-32.6-83.3-119.2-125.3-199.7c-4.1-7.8-7.9-15.5-11.6-23.1C294.7-13,281.4-50,281.4-76.1C281.4-101,287-124.6,296.7-146z
			 M246.9-159v-0.3c11.2,0.8,18.7,2.3,27.3,4.6c-0.1,0.2-0.2,0.3-0.2,0.5c-10.6,23.9-16.6,50.3-16.6,78.1
			c0,27.5,12.6,64.8,31.2,104.8c-13.8,0.7-27.7,1.1-41.7,1.3V-159z M246.9,54.1c17.8-0.2,35.5-0.8,53-1.9
			c52.7,104.5,136.3,218.5,141.4,225.4l9.7,13.1l9.7-13.1c2-2.7,15.3-20.9,34-48.2c2.7,25.1,4.3,50.9,4.7,77.2
			c-95.7-0.2-179.4-0.4-252.4-0.5L246.9,54.1L246.9,54.1z M246.9,330.1c84,0.1,170.4,0.3,252.5,0.4
			c-1.2,104.4-21.1,200.7-53.7,278.5c-61.7-13.7-129-21.3-198.8-22V330.1z M246.9,611.1c65.9,0.7,129.5,7.7,188,20.3
			c-46.4,97-113.6,160.4-188,166.6V611.1z M340.4,786.6c45.8-32,86.2-84.1,117.3-150c0.3,0.1,0.5,0.1,0.8,0.2
			c36.6,9.1,70.9,20.4,102.1,33.9C499.6,727,424.2,767.8,340.4,786.6z M580.3,651.4c0,0-0.9,1.4-1.3,1.2
			c-33.6-15.2-70.8-28-110.7-38.1c33.5-80.3,53.9-178.1,55.1-283.8c68.8,0.2,133.8,0.3,191,0.5c-2.9,123.3-52.7,235.1-132.3,318.5
			C581.4,650.2,580.3,651.4,580.3,651.4z M711.4,307.1c0,0-129.1-0.3-188.1-0.5c-0.6-36.9-3.5-72.8-8.5-107.3
			c32.4-49.1,72.3-113.8,99.2-172.3c0,0,0,0,0,0c60,77.2,94,173,97.3,277.2c0,0.7,0,1.4,0.1,2.1
			C711.7,307.2,711.4,307.1,711.4,307.1z"/>
		<g>
			<path class="st1" d="M450.9-170.6c-17.9,0-34.3,6.1-47.4,16.2c-7,5.4-13.1,11.9-17.9,19.3c-3.7,5.6-6.7,11.8-8.8,18.3
				c-2.5,7.6-3.9,15.7-3.9,24.2c0,1.7,0.1,3.3,0.3,4.9c1.9,29.9,20.6,55.2,46.7,66.6c9,3.9,18.9,6.1,29.2,6.4c0.6,0,1.2,0.1,1.8,0.1
				c32.5,0,60.4-20,72.1-48.4c3.3-7.9,5.2-16.5,5.7-25.5c0.1-1.4,0.2-2.7,0.2-4.1C528.9-135.6,493.9-170.6,450.9-170.6z M502.6-77.6
				c-6.5,22.5-27.1,39-51.6,39c-5.9,0-11.4-1.2-16.7-2.9c-21.6-7.1-37.3-27.2-37.3-51.1c0-0.6,0.2-1.3,0.2-1.9
				c0.4-12.2,4.9-23.2,12.2-32c6.1-7.4,13.9-13.2,23.1-16.6c5.8-2.1,12-3.5,18.6-3.5c25.2,0,46.2,17.4,52.2,40.8
				c1.1,4.2,1.8,8.6,1.8,13.2C504.9-87.3,504-82.4,502.6-77.6z"/>
			<path class="st1" d="M-22.5,211.2c-7-3.9-14.7-6.5-23-7.5c-2.5-0.3-4.9-0.8-7.5-0.8c-34.7,0-63,28.3-63,63
				c0,15.3,5.7,29.2,14.9,40.1c11.6,13.8,28.7,22.9,48.1,22.9c19.5,0,36.7-9.1,48.2-23c9.1-10.9,14.8-24.8,14.8-40
				C9.9,242.3-3.3,222-22.5,211.2z M-29.3,296.7c-6.6,5.1-14.8,8.3-23.7,8.3c-0.1,0-0.2,0-0.4,0c-21.3-0.2-38.6-17.6-38.6-39
				c0-21.5,17.5-39,39-39c1.5,0,3,0.3,4.5,0.5c8.9,1,16.9,4.9,22.9,10.9c7.1,7.1,11.6,16.9,11.6,27.7
				C-14.1,278.5-20.1,289.5-29.3,296.7z"/>
		</g>
		<path d="M587.7,656.4"/>
	</g>
</g>
</svg>
