<?xml version="1.0" encoding="utf-8"?>
<!-- Generator: Adobe Illustrator 22.0.0, SVG Export Plug-In . SVG Version: 6.00 Build 0)  -->
<svg version="1.1" id="Layer_1" xmlns="http://www.w3.org/2000/svg" xmlns:xlink="http://www.w3.org/1999/xlink" x="0px" y="0px"
	 viewBox="0 0 465.2 465.2" style="enable-background:new 0 0 465.2 465.2;" xml:space="preserve">
<style type="text/css">
	.st0{fill:#008A80;}
</style>
<path class="st0" d="M194.1,300.9c2.1,2.1,5,3.3,8.1,3.3c2.9,0,5.5-1.1,7.8-3l128.2-120.9c2.2-2,3.4-4.8,3.5-7.8c0.1-3-1-5.8-3-7.9
	c-4.4-4.5-11.5-4.7-16.1-0.4L202.4,277.6L143,216.5c-2.2-2.2-5.1-3.4-8-3.4c-2.8,0-5.6,1-7.7,3.1c-4.4,4.3-4.5,11.3-0.2,15.7
	L194.1,300.9z"/>
<path class="st0" d="M232.6,0C104.3,0,0,104.3,0,232.6c0,128.3,104.3,232.6,232.6,232.6c128.3,0,232.6-104.3,232.6-232.6
	C465.2,104.3,360.9,0,232.6,0z M232.6,450.9c-120.4,0-218.3-97.9-218.3-218.3c0-120.4,97.9-218.3,218.3-218.3
	c120.4,0,218.3,97.9,218.3,218.3C450.9,353,353,450.9,232.6,450.9z"/>
</svg>
