<?xml version="1.0" encoding="utf-8"?>
<!-- Generator: Adobe Illustrator 22.0.0, SVG Export Plug-In . SVG Version: 6.00 Build 0)  -->
<svg version="1.1" id="Layer_1" xmlns="http://www.w3.org/2000/svg" xmlns:xlink="http://www.w3.org/1999/xlink" x="0px" y="0px"
	 viewBox="0 0 1141.2 1030.8" style="enable-background:new 0 0 1141.2 1030.8;" xml:space="preserve">
<style type="text/css">
	.st0{fill:#FFFFFF;}
</style>
<g>
	<g>
		<path class="st0" d="M981.6,165.6H778.8V80.4c0-44.4-36-80.4-80.4-80.4H441.6c-44.4,0-80.4,36-80.4,80.4v85.2H158.4
			C70.8,165.6,0,236.4,0,324v548.4c0,87.6,70.8,158.4,158.4,158.4h824.4c87.6,0,158.4-70.8,158.4-158.4V324
			C1140,236.4,1069.2,165.6,981.6,165.6z M422.4,80.4c0-10.8,8.4-19.2,19.2-19.2h256.8c10.8,0,19.2,8.4,19.2,19.2v85.2H422.4V80.4z
			 M158.4,226.8h824.4c52.8,0,97.2,43.2,97.2,97.2v122.4C968.4,480,837.6,501.6,700.8,510v-26.4c0-34.8-28.8-63.6-63.6-63.6h-132
			c-34.8,0-63.6,28.8-63.6,63.6V510c-136.8-8.4-267.6-30-379.2-63.6V324C61.2,270,104.4,226.8,158.4,226.8z M638.4,483.6V600
			c0,1.2-1.2,2.4-2.4,2.4L502.8,600l2.4-120L638.4,483.6z M981.6,968.4H158.4c-52.8,0-97.2-43.2-97.2-97.2V510
			c112.8,32.4,242.4,52.8,379.2,61.2V600c0,34.8,28.8,63.6,63.6,63.6h129.6c34.8,0,63.6-28.8,63.6-63.6v-28.8
			c138-8.4,268.8-28.8,381.6-61.2v362.4C1078.8,925.2,1035.6,968.4,981.6,968.4z"/>
	</g>
</g>
</svg>
