<?xml version="1.0" encoding="utf-8"?>
<!-- Generator: Adobe Illustrator 22.0.0, SVG Export Plug-In . SVG Version: 6.00 Build 0)  -->
<svg version="1.1" id="Layer_1" xmlns="http://www.w3.org/2000/svg" xmlns:xlink="http://www.w3.org/1999/xlink" x="0px" y="0px"
	 viewBox="0 0 757.2 409.3" style="enable-background:new 0 0 757.2 409.3;" xml:space="preserve">
<style type="text/css">
	.st0{fill:#FFFFFF;stroke:#FFFFFF;stroke-width:12;stroke-miterlimit:10;}
</style>
<g transform="translate(600 600) scale(0.69 0.69) rotate(0) translate(-600 -600)">
	<path class="st0" d="M818.3,61.8L690.7-252.1c-1.2-3-3.6-5.3-6.5-6.6c-3-1.2-6.3-1.2-9.3,0l-143.1,60.1c-6.1,2.5-8.9,9.5-6.5,15.6
		l7.6,18.6L493-148.2l-41.1-28.4c-1.5-1-3.2-1.7-5-2L225.3-213c-15-2.3-30.6,1.8-42.9,11.5l-42.8,35.7l-102,2l6.1-13.4
		c2.7-6,0.2-13-5.7-15.9l-140.3-66.6c-2.9-1.4-6.2-1.5-9.2-0.4s-5.5,3.4-6.8,6.3L-259.8,53.9c-2.7,6-0.2,13,5.7,15.9l140.3,66.6
		c1.6,0.8,3.4,1.2,5.1,1.2c1.4,0,2.8-0.2,4.1-0.7c3-1.1,5.5-3.4,6.8-6.3l12.6-27.3l338.8,204.2c8.3,5,17.7,7.5,27,7.5
		c12,0,23.9-4.1,33.5-12l20.1-16.7c7.5,4.5,15.8,6.9,24.1,6.9c10.8,0,21.6-3.8,30.4-11.2c8.3-7,13.8-16.7,15.9-27.2
		c8.3,5.2,17.7,7.8,27.1,7.8c12.3,0,24.7-4.5,34.4-13.4c8.6-7.9,13.9-18.3,15.8-29.6c7.9,4.5,16.5,6.9,25.3,6.9
		c12.8,0,25.5-4.8,35.6-14.4c10.2-9.7,16-22.9,16.3-37c0.2-9.7-2.3-19-7-27.2l88.7-46.2l11.9,29.3c1.2,3,3.6,5.3,6.5,6.6
		c1.5,0.6,3,0.9,4.6,0.9s3.2-0.3,4.6-0.9l143.1-60.1C817.8,74.9,820.7,67.9,818.3,61.8z M-114.4,109.4L-233,53.1l131.4-285.9
		L17-176.5L-114.4,109.4z M526.4,194.7c-10.9,10.4-27.7,10.2-38.4-0.4l-17.7-17.7c-0.1-0.1-0.3-0.2-0.4-0.3
		c-0.7-0.8-1.2-1.6-1.9-2.3l-81.2-82.2c-4.7-4.7-12.3-4.8-17-0.1c-4.7,4.7-4.8,12.3-0.1,17L451,191c5.4,5.4,8.3,12.7,8.1,20.5
		c-0.2,7.8-3.4,14.9-9,20c-10.6,9.8-26.4,9.6-36.9-0.5l-22.3-21.1l0,0l-58.5-55.7c-4.8-4.6-12.4-4.4-17,0.4
		c-4.6,4.8-4.4,12.4,0.4,17l58.5,55.8l0,0l0,0c4.9,4.7,7.7,11.4,7.5,18.3c-0.2,6.9-3.3,13.4-8.5,17.9c-8.2,6.9-19.9,7.3-28.1,1.4
		l-64.6-52.9c-5.1-4.2-12.7-3.4-16.9,1.7c-4.2,5.1-3.4,12.7,1.7,16.9l49.4,40.5l-16.1,13.3c-9.3,7.7-22.5,8.7-32.8,2.5l-341-205.7
		L26.5-139.6l83.6-1.6l-38.7,32.4c-5,4.2-5.7,11.5-1.8,16.6c25.2,32.2,66.3,43,100.9,25.6l43.4-26.3l93,16.9l220.5,229.9
		c5.3,5.5,8.1,12.9,8,20.6C535.1,182.2,532,189.4,526.4,194.7z M536.6,128.9L321.5-95.5c-1.8-1.8-4-3-6.5-3.5l-101.2-18.3
		c-2.9-0.5-5.8,0-8.4,1.5l-46.5,28.2c-20.3,10.1-44.6,5.5-62.5-10.9l101.1-84.4c6.8-5.4,15.6-7.7,24.1-6.4l218.9,34l44.2,30.6
		c3.3,2.3,7.6,2.7,11.3,1.2l45.9-18.6l90,221.4L536.6,128.9z M670.6,110.7L552-181l121-50.8L791.5,59.9L670.6,110.7z"/>
</g>
</svg>
