<?xml version="1.0" encoding="utf-8"?>
<!-- Generator: Adobe Illustrator 22.0.0, SVG Export Plug-In . SVG Version: 6.00 Build 0)  -->
<svg version="1.1" id="Layer_1" xmlns="http://www.w3.org/2000/svg" xmlns:xlink="http://www.w3.org/1999/xlink" x="0px" y="0px"
	 viewBox="0 0 479.4 479.3" style="enable-background:new 0 0 479.4 479.3;" xml:space="preserve">
<style type="text/css">
	.st0{fill:#FFFFFF;}
</style>
<g transform="translate(600 600) scale(0.69 0.69) rotate(0) translate(-600 -600)">
	<g>
		<path class="st0" d="M113.2,410.7c30,9.6,57.6,14.4,82.8,14.4c42,0,78-13.2,103.2-38.4l46.8-46.8c10.8-10.8,18-26.4,18-43.2
			c0-15.6-6-31.2-18-43.2l-99.6-99.6c-10.8-10.8-26.4-16.8-42-16.8s-31.2,6-43.2,18L124,192.3c-7.2,7.2-18,8.4-26.4,2.4
			c-25.2-19.2-50.4-39.6-73.2-62.4C1.6,109.5-20,84.3-38,59.1c-6-8.4-4.8-19.2,2.4-26.4l0,0L1.6-4.5c10.8-10.8,18-26.4,18-43.2
			c0-15.6-6-31.2-18-43.2L-98-190.5c-10.8-10.8-26.4-18-43.2-18c-15.6,0-31.2,6-43.2,18l-46.8,46.8
			c-81.6,81.6-28.8,261.6,118.8,409.2C-41.6,336.3,38.8,386.7,113.2,410.7z M-201.2-114.9l46.8-46.8c3.6-3.6,8.4-6,14.4-6
			s10.8,2.4,14.4,6L-26-62.1c3.6,3.6,6,8.4,6,14.4s-2.4,10.8-6,14.4L-63.2,3.9c-20.4,20.4-24,54-6,78c20.4,27.6,42,52.8,67.2,78
			c24,24,50.4,46.8,78,67.2c24,16.8,57.6,14.4,78-6l37.2-37.2c7.2-7.2,21.6-7.2,28.8,0l99.6,99.6c3.6,3.6,6,8.4,6,14.4
			s-2.4,10.8-6,14.4l-48,45.6c-30,30-81.6,34.8-146.4,14.4C55.6,350.7-17.6,303.9-82.4,239.1C-209.6,110.7-264.8-51.3-201.2-114.9z"
			/>
		<path class="st0" d="M109.6-231.3c61.2,20.4,120,57.6,169.2,108c50.4,50.4,87.6,109.2,108,169.2c2.4,8.4,10.8,13.2,19.2,13.2
			c2.4,0,4.8,0,6-1.2c10.8-3.6,15.6-14.4,12-25.2c-21.6-64.8-61.2-129.6-116.4-183.6c-54-54-118.8-94.8-184.8-117.6
			c-10.8-3.6-21.6,2.4-25.2,12C94-245.7,98.8-234.9,109.6-231.3z"/>
		<path class="st0" d="M67.6-106.5c42,14.4,82.8,40.8,118.8,76.8s62.4,76.8,76.8,118.8c2.4,8.4,10.8,13.2,19.2,13.2
			c2.4,0,4.8,0,6-1.2c10.8-3.6,15.6-14.4,12-25.2c-16.8-48-45.6-94.8-86.4-134.4c-40.8-40.8-86.4-70.8-134.4-86.4
			c-10.8-3.6-21.6,2.4-25.2,12C52-122.1,56.8-110.1,67.6-106.5z"/>
	</g>
</g>
</svg>
