<?xml version="1.0" encoding="utf-8"?>
<!-- Generator: Adobe Illustrator 22.0.0, SVG Export Plug-In . SVG Version: 6.00 Build 0)  -->
<svg version="1.1" id="Layer_1" xmlns="http://www.w3.org/2000/svg" xmlns:xlink="http://www.w3.org/1999/xlink" x="0px" y="0px"
	 viewBox="0 0 690 586.5" style="enable-background:new 0 0 690 586.5;" xml:space="preserve">
<style type="text/css">
	.st0{fill:#FFFFFF;}
</style>
<g transform="translate(600 600) scale(0.69 0.69) rotate(0) translate(-600 -600)">
	<title>Artboard 9</title>
	<g>
		<path class="st0" d="M718.7-15.6l0-0.1l-0.3-0.2l-0.1-0.1l-0.1,0l-137.9-87.1v-141.5c0-13.8-11.2-25-25-25c0,0,0,0,0,0h-650
			c-13.8,0-25,11.2-25,25c0,0,0,0,0,0v141.5L-257.4-16l-0.1,0l-0.1,0.1l-0.3,0.2l0,0.1c-7.2,4.5-11.7,12.5-11.7,21v550
			c0,13.8,11.2,25,25,25c0,0,0,0,0,0h950c13.8,0,25-11.2,25-25c0,0,0,0,0,0V5.4C730.4-3.1,726-11,718.7-15.6z M655.5,3.5L580.4,43
			v-86.9L655.5,3.5z M530.4-219.6V69.3l-300,157.9l-300-157.9v-288.9H530.4z M-119.6,43l-75.1-39.5l75.1-47.4V43z M680.4,530.4h-900
			V46.8l438.4,230.7c7.3,3.9,16,3.9,23.2,0L680.4,46.8V530.4z"/>
		<path class="st0" d="M55.4-69.6h350c13.8,0,25-11.2,25-25s-11.2-25-25-25h-350c-13.8,0-25,11.2-25,25S41.6-69.6,55.4-69.6z"/>
		<path class="st0" d="M55.4,30.4h350c13.8,0,25-11.2,25-25s-11.2-25-25-25h-350c-13.8,0-25,11.2-25,25S41.6,30.4,55.4,30.4z"/>
	</g>
</g>
</svg>
