<?xml version="1.0" encoding="utf-8"?>
<!-- Generator: Adobe Illustrator 22.0.0, SVG Export Plug-In . SVG Version: 6.00 Build 0)  -->
<svg version="1.1" id="Layer_1" xmlns="http://www.w3.org/2000/svg" xmlns:xlink="http://www.w3.org/1999/xlink" x="0px" y="0px"
	 viewBox="0 0 828 828" style="enable-background:new 0 0 828 828;" xml:space="preserve">
<style type="text/css">
	.st0{fill:#FFFFFF;}
</style>
<title>008 - Process</title>
<path class="st0" d="M414,510.6c53.4,0,96.6-43.2,96.6-96.6s-43.2-96.6-96.6-96.6s-96.6,43.2-96.6,96.6
	C317.5,467.3,360.7,510.5,414,510.6z M414,345c38.1,0,69,30.9,69,69s-30.9,69-69,69s-69-30.9-69-69C345,375.9,375.9,345,414,345z"/>
<path class="st0" d="M157.6,369.8c-10.6,3.4-18,13-18.9,24.1c-0.5,6.7-0.8,13.3-0.8,20.1s0.3,13.5,0.8,20.1
	c0.8,11.1,8.3,20.6,18.9,24.1l59.6,19.9c3.4,10.2,7.5,20.2,12.4,29.7l-28.2,56.3c-5.1,9.9-3.6,21.9,3.6,30.4c4.4,5,8.9,10,13.7,14.7
	c4.7,4.7,9.7,9.3,14.7,13.7c5,4.3,11.3,6.7,17.9,6.7c4.3,0,8.6-1,12.5-3l56.4-28.2c9.6,4.9,19.5,9.1,29.7,12.4l19.9,59.6
	c3.5,10.6,13,18,24.1,18.8c6.6,0.5,13.3,0.8,20.1,0.8s13.5-0.3,20.1-0.8c11.1-0.8,20.7-8.3,24.1-18.9l19.9-59.6
	c10.2-3.4,20.2-7.5,29.7-12.4l56.3,28.2c3.9,2,8.2,3,12.5,3c6.5,0,12.9-2.3,17.8-6.6c5-4.4,10-8.9,14.7-13.7
	c4.7-4.7,9.3-9.7,13.7-14.7c7.3-8.4,8.7-20.4,3.7-30.4l-28.2-56.4c4.9-9.6,9.1-19.5,12.4-29.7l59.6-19.8c10.6-3.5,18-13,18.8-24.1
	c0.5-6.7,0.8-13.3,0.8-20.1s-0.3-13.4-0.8-20.1c-0.8-11.1-8.3-20.6-18.9-24.1L610.8,350c-3.4-10.2-7.5-20.2-12.4-29.7l28.2-56.3
	c5.1-9.9,3.6-21.9-3.6-30.4c-4.4-5-8.9-9.9-13.7-14.7c-4.8-4.8-9.7-9.3-14.7-13.7c-8.4-7.3-20.4-8.7-30.4-3.7l-56.4,28.2
	c-9.6-4.9-19.5-9.1-29.7-12.4l-19.8-59.6c-3.5-10.6-13-18-24.1-18.9c-13.4-1-26.8-1-40.1,0c-11.1,0.8-20.7,8.3-24.1,18.9L350,217.2
	c-10.2,3.4-20.2,7.5-29.7,12.4l-56.3-28.2c-9.9-5.1-21.9-3.6-30.4,3.7c-5,4.3-10,8.9-14.7,13.7c-4.8,4.8-9.3,9.7-13.7,14.7
	c-7.3,8.4-8.7,20.4-3.7,30.4l28.2,56.4c-4.9,9.6-9.1,19.5-12.4,29.7L157.6,369.8z M209.6,446.4l-43.3-14.3c-0.4-6-0.7-12-0.7-18.1
	c0-6.1,0.2-12.1,0.7-17.9l43.2-14.4c-0.4,2.3-0.5,4.6-0.8,6.9c-0.3,2.3-0.6,4.3-0.8,6.4c-0.6,6.3-1,12.6-1,19s0.4,12.7,1,19
	c0.2,2.1,0.5,4.1,0.7,6.2C209,441.6,209.2,444,209.6,446.4L209.6,446.4z M268.5,309.5c1.5-2.2,3.1-4.3,4.8-6.4
	c3.6-4.6,7.4-8.9,11.4-13.1c1.8-1.8,3.6-3.6,5.4-5.4c4.2-4,8.5-7.8,13.1-11.4c2.1-1.7,4.3-3.2,6.4-4.8c4.6-3.3,9.3-6.4,14.2-9.2
	c16.6-9.8,34.6-16.8,53.4-20.8c1.2-0.2,2.3-0.4,3.5-0.6c4.1-0.8,8.2-1.4,12.3-1.9c1.8-0.2,3.5-0.4,5.3-0.6c4.7-0.4,9.4-0.7,14.1-0.7
	c1.1,0,2.2,0,3.3,0c4.8,0,9.5,0.3,14.1,0.7c1.8,0.2,3.5,0.3,5.3,0.6c4.1,0.5,8.3,1.1,12.3,1.9c1.1,0.2,2.3,0.4,3.5,0.6
	c18.8,4,36.8,11,53.4,20.8c4.9,2.8,9.7,5.9,14.2,9.2c2.2,1.6,4.3,3.1,6.4,4.8c4.5,3.6,8.9,7.4,13.1,11.4c1.8,1.8,3.6,3.6,5.4,5.4
	c4,4.2,7.8,8.6,11.4,13.1c1.6,2.1,3.2,4.1,4.8,6.4c3.4,4.7,6.5,9.4,9.4,14.4c9.7,16.5,16.7,34.5,20.7,53.3c0.2,1,0.3,2,0.5,3.1
	c0.8,4.3,1.5,8.6,2,13c0.2,1.5,0.3,3.1,0.5,4.6c0.5,5.3,0.8,10.7,0.8,16.2s-0.3,10.8-0.8,16.2c-0.1,1.5-0.3,3.1-0.5,4.6
	c-0.5,4.4-1.2,8.7-2,12.9c-0.2,1-0.3,2.1-0.5,3.1c-4,18.8-11,36.8-20.7,53.3c-2.9,4.9-6,9.7-9.3,14.3c-1.6,2.2-3.1,4.3-4.8,6.4
	c-3.6,4.5-7.3,8.9-11.3,13.1c-1.8,1.8-3.7,3.7-5.5,5.5c-4.2,4-8.5,7.8-13.1,11.3c-2.1,1.7-4.2,3.2-6.4,4.8
	c-4.6,3.3-9.4,6.4-14.3,9.3c-16.5,9.7-34.5,16.7-53.2,20.7c-1.3,0.3-2.5,0.4-3.8,0.7c-3.9,0.7-7.8,1.4-11.8,1.8
	c-1.9,0.2-3.8,0.4-5.8,0.6c-4.3,0.4-8.7,0.6-13.1,0.7c-1.7,0-3.3,0-5,0c-4.4-0.1-8.7-0.3-13.1-0.7c-1.9-0.2-3.9-0.4-5.8-0.6
	c-4-0.5-7.9-1.1-11.8-1.8c-1.3-0.2-2.5-0.4-3.8-0.7c-18.7-4-36.7-11-53.2-20.7c-4.9-2.9-9.7-6-14.3-9.3c-2.2-1.6-4.3-3.1-6.4-4.8
	c-4.5-3.6-8.9-7.3-13.1-11.3c-1.8-1.8-3.7-3.7-5.5-5.5c-4-4.2-7.8-8.5-11.3-13.1c-1.7-2.1-3.2-4.2-4.8-6.4
	c-3.3-4.6-6.4-9.4-9.3-14.3c-9.7-16.5-16.7-34.6-20.7-53.3c-0.2-1-0.3-2.1-0.6-3.1c-0.8-4.3-1.5-8.5-2-12.9
	c-0.2-1.5-0.3-3.1-0.5-4.6c-0.5-5.3-0.8-10.6-0.8-16.1s0.3-10.8,0.8-16.1c0.1-1.5,0.3-3.1,0.5-4.6c0.5-4.4,1.2-8.7,2-12.9
	c0.2-1,0.3-2.1,0.5-3.1c4-18.8,11-36.8,20.7-53.3C262,319,265.1,314.2,268.5,309.5L268.5,309.5z M292.3,581.4l-40.7,20.5
	c-4.5-3.9-8.9-8-13.3-12.3c-4.3-4.3-8.4-8.7-12.1-13.2l20.4-40.7c2.3,3.1,4.7,6.1,7.2,9.1c0.3,0.3,0.5,0.7,0.8,1
	c4.1,5,8.5,9.9,13.1,14.5s9.5,8.9,14.5,13.1l1,0.8C286.2,576.7,289.2,579.2,292.3,581.4L292.3,581.4z M446.4,618.4l-14.3,43.3
	c-12,0.9-24,0.9-36-0.1l-14.4-43.2c2.3,0.4,4.6,0.5,6.9,0.8c2.3,0.3,4.4,0.6,6.7,0.8c5.9,0.5,11.9,0.9,17.9,0.9c0.3,0,0.6,0,0.9,0
	s0.5,0,0.8,0c6,0,12.1-0.4,18.1-0.9c2.2-0.2,4.3-0.5,6.4-0.8S444.1,618.8,446.4,618.4L446.4,618.4z M581.5,535.6l20.5,40.7
	c-3.9,4.5-8,8.9-12.3,13.3c-4.3,4.3-8.7,8.4-13.2,12.1l-40.7-20.4c3.1-2.3,6.1-4.7,9.1-7.2c0.3-0.3,0.7-0.5,1-0.8
	c5-4.1,9.9-8.5,14.5-13.1s8.9-9.5,13.1-14.5c0.3-0.3,0.5-0.7,0.8-1C576.7,541.8,579.2,538.8,581.5,535.6L581.5,535.6z M618.4,381.6
	l43.3,14.3c0.4,6,0.7,12,0.7,18.1c0,6.1-0.2,12.1-0.7,17.9l-43.2,14.4c0.4-2.3,0.5-4.6,0.8-6.9s0.6-4.3,0.8-6.4c0.6-6.3,1-12.6,1-19
	s-0.4-12.7-1-19c-0.2-2.1-0.5-4.1-0.7-6.2C619,386.4,618.8,384,618.4,381.6L618.4,381.6z M535.6,246.5l40.7-20.5
	c4.5,3.9,8.9,8,13.2,12.3c4.3,4.3,8.4,8.7,12.2,13.2l-20.4,40.7c-2.3-3.2-4.8-6.2-7.2-9.2l-0.7-0.9c-4.1-5-8.5-9.9-13.1-14.5
	s-9.5-9-14.6-13.1l-0.8-0.6C542,251.4,538.9,248.9,535.6,246.5L535.6,246.5z M381.6,209.6l14.3-43.3c6-0.5,12-0.7,18.1-0.7
	c6.1,0,12.1,0.2,17.9,0.7l14.4,43.2c-2.3-0.4-4.7-0.5-7-0.8c-2.3-0.3-4.3-0.6-6.5-0.8c-5.9-0.5-11.9-0.9-17.9-0.9c-0.3,0-0.7,0-1,0
	c-0.4,0-0.6,0-1,0c-6,0-12,0.4-17.9,0.9c-2.2,0.2-4.3,0.5-6.5,0.8C386.4,209,383.9,209.2,381.6,209.6z M246.5,292.4l-20.5-40.7
	c3.9-4.5,8-8.9,12.3-13.3c4.3-4.3,8.7-8.4,13.2-12.1l40.7,20.4c-3.2,2.3-6.3,4.9-9.4,7.4c-0.2,0.2-0.5,0.4-0.7,0.6
	c-5.1,4.1-9.9,8.5-14.6,13.1c-4.6,4.6-8.9,9.5-13.1,14.5c-0.3,0.4-0.6,0.7-0.9,1.1C251.3,286.2,248.8,289.2,246.5,292.4L246.5,292.4
	z"/>
<path class="st0" d="M414,828c7.6,0,13.8-6.2,13.8-13.8s-6.2-13.8-13.8-13.8C200.7,800.2,27.8,627.3,27.6,414
	c-0.3-94.1,34-185.1,96.6-255.5v76.1c0,7.6,6.2,13.8,13.8,13.8s13.8-6.2,13.8-13.8V124.2c-0.1-0.6-0.2-1.2-0.4-1.8
	c-0.1-1.1-0.3-2.2-0.7-3.3c-0.5-1-1.1-2-1.8-2.9c-0.3-0.5-0.6-1-1-1.5l-0.1-0.1c-1-0.9-2.1-1.7-3.3-2.3c-0.4-0.3-0.7-0.5-1.1-0.7
	c-0.5-0.1-1.1-0.3-1.6-0.4c-1.2-0.4-2.4-0.7-3.7-0.7H138H27.6c-7.6,0-13.8,6.2-13.8,13.8S20,138,27.6,138h78
	C37.3,213.7-0.4,312.1,0,414C0.3,642.5,185.5,827.7,414,828z"/>
<path class="st0" d="M414,0c-7.6,0-13.8,6.2-13.8,13.8s6.2,13.8,13.8,13.8C627.3,27.8,800.2,200.7,800.4,414
	c0.3,94.2-34.1,185.1-96.6,255.5v-76.1c0-7.6-6.2-13.8-13.8-13.8s-13.8,6.2-13.8,13.8v110.4c0.1,0.6,0.2,1.2,0.4,1.8
	c0.1,1.1,0.3,2.2,0.7,3.3c0.5,1.1,1.1,2.1,1.9,3c0.3,0.5,0.6,0.9,0.9,1.4l0.1,0.1c1.3,1.3,2.8,2.4,4.5,3.1c1.7,0.7,3.5,1.1,5.4,1.1
	h110.4c7.6,0,13.8-6.2,13.8-13.8S808,690,800.4,690h-78c68.3-75.7,105.9-174.1,105.6-276C827.7,185.5,642.5,0.3,414,0z"/>
</svg>
