<?xml version="1.0" encoding="utf-8"?>
<!-- Generator: Adobe Illustrator 22.0.0, SVG Export Plug-In . SVG Version: 6.00 Build 0)  -->
<svg version="1.1" id="Layer_1" xmlns="http://www.w3.org/2000/svg" xmlns:xlink="http://www.w3.org/1999/xlink" x="0px" y="0px"
	 viewBox="0 0 214.9 115.5" style="enable-background:new 0 0 214.9 115.5;" xml:space="preserve">
<style type="text/css">
	.st0{fill-rule:evenodd;clip-rule:evenodd;fill:#009994;}
</style>
<path class="st0" d="M2.5,111.5v-9.7c0-1.1-0.2-1.9-0.5-2.4c-0.3-0.5-0.8-0.8-1.5-0.8c-0.3,0-0.5-0.1-0.5-0.3C0,98.1,0.2,98,0.5,98
	c0.1,0,0.3,0,0.6,0c0.3,0,0.6,0,1,0c0.6,0,1.1,0,1.4,0L5,98c0.4,0,0.9,0,1.3,0c1.8,0,3.3,0.4,4.3,1.1c1.1,0.7,1.6,1.7,1.6,3
	c0,1.3-0.6,2.4-1.7,3.1l-0.5,0.4c-0.1,0.1-0.2,0.1-0.2,0.2c0,0.1,0.2,0.2,0.7,0.3c0.9,0.2,1.7,0.7,2.3,1.5c0.6,0.8,0.9,1.7,0.9,2.7
	c0,1.5-0.6,2.8-1.7,3.8c-1.1,1-2.6,1.5-4.3,1.5l-1,0l-1.2,0l-1-0.1c-0.7,0-1.2-0.1-1.6-0.1c-0.4,0-0.7,0-1,0.1
	c-0.4,0.1-0.7,0.1-0.8,0.1c-0.2,0-0.4-0.1-0.4-0.3c0-0.1,0.1-0.2,0.4-0.3c0.7-0.1,1.1-0.5,1.3-1.2C2.5,113.1,2.5,112.3,2.5,111.5
	 M5.1,106.5c-0.3,0-0.5,0-0.6,0.1c-0.1,0.1-0.1,0.2-0.1,0.4l0,5.8l0,0.6l0.1,0.5c0.1,0.4,0.4,0.6,0.9,0.8c0.5,0.2,1.2,0.2,2.3,0.2
	c1.3,0,2.3-0.3,3.1-1c0.7-0.7,1.1-1.6,1.1-2.9c0-1.3-0.4-2.3-1.2-3.1c-0.8-0.8-1.8-1.2-3-1.2H5.1z M24.6,97.8c2.6,0,4.7,0.8,6.4,2.4
	c1.7,1.6,2.5,3.7,2.5,6.2c0,2.7-0.8,4.9-2.5,6.6c-1.7,1.7-3.8,2.6-6.5,2.6c-2.7,0-4.9-0.8-6.5-2.4c-1.7-1.6-2.5-3.8-2.5-6.4
	c0-1.1,0.2-2.3,0.7-3.4c0.4-1.1,1-2.1,1.8-2.8c0.8-0.8,1.8-1.4,3-1.9C22.1,98.1,23.4,97.8,24.6,97.8z M23.8,98.6
	c-1.9,0-3.5,0.7-4.6,2c-1.1,1.3-1.7,3.1-1.7,5.3c0,2.5,0.7,4.6,2.2,6.4c1.5,1.7,3.2,2.6,5.4,2.6c1.9,0,3.5-0.7,4.8-2.1
	c1.3-1.4,1.9-3.2,1.9-5.4c0-2.5-0.8-4.6-2.3-6.2C27.9,99.5,26.1,98.6,23.8,98.6z M41.1,97.8c0.9,0,1.6,0.1,2.3,0.4l0.9,0.4
	c0.1,0,0.2,0,0.2,0c0.1,0,0.2,0,0.3-0.1l0.2-0.1c0,0,0.1-0.1,0.1-0.1c0.2,0,0.3,0.2,0.3,0.6c0,0.1,0.1,0.6,0.2,1.3l0.2,1.3
	c0,0.3,0.1,0.4,0.1,0.5c0,0.3-0.1,0.4-0.3,0.4c-0.1,0-0.3-0.2-0.4-0.6c-0.3-0.9-0.9-1.6-1.8-2.2c-0.9-0.6-1.9-0.9-3.1-0.9
	c-0.9,0-1.6,0.3-2.2,0.8c-0.6,0.5-0.9,1.2-0.9,2c0,0.7,0.2,1.3,0.6,1.8c0.3,0.4,0.7,0.8,1.1,1c0.4,0.2,1.4,0.6,3,1.1
	c3.1,1,4.6,2.7,4.6,5c0,1.6-0.6,2.8-1.7,3.8c-1.1,1-2.6,1.5-4.4,1.5c-0.6,0-1.3-0.1-2.1-0.3c-0.8-0.2-1.3-0.4-1.7-0.6
	c-0.1-0.1-0.3-0.2-0.3-0.3c0-0.1-0.1-0.4-0.2-0.9c0-0.1-0.1-0.4-0.3-1.1c-0.2-0.8-0.3-1.3-0.3-1.6c0-0.3,0.1-0.4,0.3-0.4
	c0.2,0,0.3,0.2,0.4,0.6c0.3,1,0.9,1.9,1.9,2.6c1,0.7,2,1.1,3.1,1.1c1.1,0,2.1-0.3,2.9-1c0.8-0.7,1.2-1.5,1.2-2.5
	c0-0.9-0.4-1.7-1.1-2.3c-0.4-0.3-1.5-0.8-3.2-1.4c-1.8-0.6-3.2-1.3-3.9-2.1c-0.8-0.8-1.2-1.7-1.2-2.9c0-1.3,0.5-2.4,1.5-3.3
	C38.2,98.2,39.5,97.8,41.1,97.8z M60.7,99.5h-3.5c-0.4,0-0.6,0.1-0.7,0.1c-0.1,0.1-0.1,0.3-0.1,0.7l0,12.3l0,0.5
	c0,1,0.6,1.6,1.6,1.7c0.3,0,0.4,0.1,0.4,0.3c0,0.2-0.1,0.3-0.4,0.3c-0.1,0-0.3,0-0.6-0.1c-0.2,0-0.5,0-1.1,0l-0.9,0l-1,0
	c-0.4,0-0.6,0-0.9,0c-0.5,0.1-0.8,0.1-0.8,0.1c-0.2,0-0.4-0.1-0.4-0.3c0-0.1,0.1-0.2,0.4-0.2c0.6-0.1,1.1-0.3,1.3-0.5
	c0.2-0.3,0.3-0.8,0.3-1.5l0-12.4l0-0.3c0-0.3,0-0.5-0.1-0.6c-0.1-0.1-0.3-0.1-0.6-0.1h-3.3c-0.7,0-1.2,0.1-1.5,0.4
	c-0.3,0.3-0.5,0.8-0.7,1.5c-0.1,0.3-0.2,0.5-0.3,0.5c-0.1,0-0.2-0.1-0.2-0.3c0-0.2,0-0.5,0.2-1c0.1-0.6,0.2-1.1,0.2-1.5
	c0-0.4,0-0.6,0.1-0.8c0.1-0.1,0.3-0.2,0.6-0.2h13.5c0.5,0,0.7,0,0.8,0.1c0.1,0.1,0.1,0.4,0.1,0.9c0,0.5,0,0.8,0.1,1.1
	c0,0.3,0.1,0.5,0.1,0.6c0,0.2-0.1,0.4-0.3,0.4c-0.1,0-0.2-0.1-0.3-0.4c-0.1-0.6-0.3-1-0.5-1.2C61.9,99.5,61.4,99.5,60.7,99.5z
	 M72.9,97.8c2.6,0,4.7,0.8,6.4,2.4c1.7,1.6,2.5,3.7,2.5,6.2c0,2.7-0.8,4.9-2.5,6.6c-1.7,1.7-3.8,2.6-6.5,2.6c-2.7,0-4.9-0.8-6.5-2.4
	c-1.7-1.6-2.5-3.8-2.5-6.4c0-1.1,0.2-2.3,0.7-3.4c0.4-1.1,1-2.1,1.8-2.8c0.8-0.8,1.8-1.4,3-1.9C70.5,98.1,71.7,97.8,72.9,97.8z
	 M72.1,98.6c-1.9,0-3.5,0.7-4.6,2c-1.1,1.3-1.7,3.1-1.7,5.3c0,2.5,0.7,4.6,2.2,6.4c1.5,1.7,3.2,2.6,5.4,2.6c1.9,0,3.5-0.7,4.8-2.1
	c1.3-1.4,1.9-3.2,1.9-5.4c0-2.5-0.8-4.6-2.3-6.2C76.3,99.5,74.4,98.6,72.1,98.6z M99.1,102.9v10.5c0,0.9,0,1.5-0.1,1.7
	c0,0.2-0.2,0.3-0.3,0.3c-0.1,0-0.2,0-0.3-0.1l-0.3-0.3l-10.5-12l-0.1-0.1c0,0-0.1-0.1-0.2-0.1c-0.2,0-0.2,0.2-0.2,0.6v8.5l0,0.5
	l0,0.9c0.1,0.6,0.2,0.9,0.4,1.1c0.2,0.2,0.7,0.4,1.3,0.5c0.3,0,0.4,0.1,0.4,0.3c0,0.2-0.1,0.2-0.3,0.2c-0.1,0-0.2,0-0.4,0
	c-0.1,0-0.5,0-1.1-0.1l-1.3-0.1l-0.6,0c-0.3,0-0.6,0-0.9,0.1c-0.2,0-0.4,0-0.5,0c-0.2,0-0.3-0.1-0.4-0.2c0-0.1,0.1-0.2,0.4-0.3
	c0.7-0.2,1.2-0.6,1.4-1c0.2-0.4,0.4-1.1,0.4-2v-8.5c0-1.4-0.2-2.6-0.7-3.4c-0.5-0.8-1.1-1.3-2-1.4c-0.2,0-0.3-0.1-0.3-0.3
	c0-0.2,0.1-0.2,0.3-0.2c0,0,0.1,0,0.2,0l0.5,0l0.8,0l0.2,0c0.2,0,0.4,0,0.5,0c0.2,0,0.4,0.1,0.6,0.4l11.5,13
	c0.2,0.2,0.3,0.3,0.3,0.3c0.1,0,0.1-0.1,0.1-0.2v-6.2l0-1.7l-0.2-2.9c-0.1-0.7-0.3-1.2-0.6-1.5c-0.3-0.3-0.9-0.5-1.8-0.7
	c-0.2,0-0.4-0.1-0.4-0.3c0-0.2,0.1-0.2,0.4-0.2c0.1,0,0.3,0,0.5,0c0.6,0.1,1.3,0.1,2.3,0.1c0.5,0,0.9,0,1.2-0.1
	c0.3-0.1,0.5-0.1,0.6-0.1c0.2,0,0.3,0.1,0.4,0.3c0,0.1-0.1,0.2-0.2,0.2c-0.5,0.1-0.8,0.3-1,0.6c-0.2,0.3-0.2,0.8-0.2,1.6v1.4
	L99.1,102.9z M113.4,100.1v10.4l0,1.2l0,1.1c0.1,1,0.5,1.6,1.1,1.8c0.5,0.1,0.8,0.2,1,0.2c0.3,0,0.4,0.1,0.4,0.2
	c0,0.2-0.1,0.3-0.4,0.3c-0.1,0-0.4,0-0.8-0.1c-0.3,0-0.7,0-1.3,0l-0.9,0l-1,0c-0.5,0-0.9,0-1.1,0c-0.3,0-0.6,0.1-0.7,0.1
	c-0.2,0-0.3-0.1-0.3-0.2c0-0.2,0.1-0.3,0.4-0.3c0.7-0.1,1.1-0.5,1.3-1.1c0.2-0.6,0.4-1.8,0.4-3.4v-7.6c0-1.7-0.1-2.9-0.3-3.3
	c-0.2-0.5-0.7-0.7-1.6-0.8c-0.2,0-0.3-0.1-0.3-0.3c0-0.2,0.2-0.3,0.5-0.3c0.2,0,0.4,0,0.6,0.1c0.5,0.1,1,0.1,1.3,0.1
	c0.5,0,1.3,0,2.3-0.1c0.5,0,1-0.1,1.3-0.1c1.7,0,3.2,0.4,4.2,1.3c1.1,0.8,1.6,1.9,1.6,3.3c0,1.6-0.7,2.9-2,3.9c-1,0.7-2.1,1-3.2,1
	c-0.5,0-1-0.1-1.4-0.2c-0.4-0.1-0.6-0.2-0.6-0.4c0-0.1,0.1-0.1,0.2-0.1c0.1,0,0.1,0,0.2,0c0.2,0.1,0.5,0.1,0.9,0.1
	c1.2,0,2.2-0.3,2.9-1c0.7-0.7,1.1-1.5,1.1-2.6c0-1.3-0.5-2.3-1.4-3.1c-0.9-0.8-2.1-1.2-3.6-1.2c-0.3,0-0.6,0.1-0.7,0.2
	c-0.1,0.1-0.2,0.4-0.2,0.7L113.4,100.1z M128,105.9h7.4c0.4,0,0.6,0,0.7-0.1c0.1-0.1,0.1-0.2,0.1-0.5v-4.3c0-0.9-0.1-1.5-0.3-1.8
	c-0.2-0.4-0.6-0.6-1.2-0.7c-0.2,0-0.4-0.1-0.4-0.3c0-0.1,0.1-0.2,0.3-0.2c0.2,0,0.5,0,0.8,0.1c0.5,0.1,1.1,0.1,1.7,0.1
	c0.9,0,1.5,0,1.9-0.1c0.2,0,0.4-0.1,0.5-0.1c0.2,0,0.3,0.1,0.3,0.2c0,0.1-0.1,0.2-0.3,0.3l-0.5,0.1c-0.3,0.1-0.5,0.2-0.7,0.6
	c-0.2,0.3-0.3,0.7-0.3,1.1l0,12.1c0,0.9,0.1,1.5,0.4,1.9c0.3,0.3,0.7,0.6,1.4,0.6c0.3,0,0.4,0.1,0.4,0.2c0,0.2-0.1,0.3-0.3,0.3
	c-0.2,0-0.4,0-0.7-0.1c-0.2,0-0.6-0.1-1.2-0.1l-0.9,0l-0.9,0c-0.1,0-0.4,0-0.6,0c-0.5,0-0.8,0.1-0.9,0.1c-0.2,0-0.3-0.1-0.3-0.2
	c0-0.1,0.2-0.2,0.4-0.3c0.9-0.2,1.3-0.9,1.3-2.1l0-0.5v-4.6c0-0.4,0-0.6-0.1-0.7c-0.1-0.1-0.3-0.1-0.8-0.1H128c-0.5,0-0.8,0-0.9,0.1
	c-0.1,0.1-0.2,0.3-0.2,0.7l0,4.6c0,0.9,0.1,1.5,0.4,1.8c0.3,0.4,0.8,0.6,1.5,0.7c0.3,0,0.5,0.1,0.5,0.3c0,0.2-0.1,0.3-0.4,0.3
	c-0.1,0-0.3,0-0.6-0.1c-0.2,0-0.7-0.1-1.5-0.1l-1.1,0l-0.8,0c-0.2,0-0.5,0-0.8,0c-0.4,0-0.7,0.1-0.8,0.1c-0.2,0-0.3-0.1-0.3-0.2
	c0-0.1,0.1-0.2,0.3-0.3l0.6-0.2c0.4-0.1,0.6-0.4,0.8-0.8c0.1-0.5,0.2-1.3,0.2-2.5v-10.7c0-0.7-0.1-1.3-0.4-1.6
	c-0.3-0.3-0.8-0.5-1.5-0.7c-0.2,0-0.4-0.1-0.4-0.3c0-0.2,0.1-0.3,0.3-0.2c0.2,0,0.4,0,0.8,0.1c0.7,0.1,1.4,0.1,2.3,0.1
	c0.6,0,1.1,0,1.7-0.1c0.2,0,0.4,0,0.5,0c0.2,0,0.4,0.1,0.4,0.3c0,0.1-0.1,0.2-0.3,0.3c-0.6,0.1-0.9,0.3-1.1,0.6
	c-0.2,0.3-0.3,0.7-0.3,1.3l0,4.5c0,0.5,0,0.8,0.1,0.9C127.2,105.8,127.5,105.9,128,105.9z M151.7,108.7h-4.5c-0.6,0-1,0-1.2,0.2
	c-0.1,0.1-0.4,0.4-0.6,1l-0.8,1.8c-0.4,0.8-0.6,1.5-0.6,1.9c0,0.4,0.1,0.7,0.3,0.9c0.2,0.2,0.6,0.3,1.2,0.5c0.3,0,0.4,0.1,0.4,0.3
	c0,0.1-0.1,0.2-0.3,0.2c-0.1,0-0.2,0-0.4,0l-1.2-0.1c-0.4,0-0.9,0-1.4,0c-0.2,0-0.4,0-0.6,0c-0.4,0-0.7,0.1-0.7,0.1
	c-0.2,0-0.3-0.1-0.3-0.2c0-0.1,0.1-0.2,0.2-0.3l0.5-0.1c0.2-0.1,0.4-0.3,0.7-0.6c0.3-0.4,0.5-0.7,0.7-1.1l0.4-0.8l6.4-14.3
	c0.1-0.3,0.2-0.4,0.4-0.4c0.1,0,0.2,0.1,0.3,0.4l5.4,13.8l0.3,0.7c0.4,1,0.7,1.6,1,1.9c0.3,0.2,0.8,0.4,1.6,0.6
	c0.3,0,0.4,0.2,0.4,0.3c0,0.1-0.1,0.2-0.4,0.2c-0.1,0-0.2,0-0.5,0c-0.4,0-1.2-0.1-2.3-0.1c-1.2,0-1.9,0-2.2,0.1
	c-0.2,0-0.3,0.1-0.4,0.1c-0.2,0-0.3-0.1-0.3-0.3c0-0.1,0.1-0.2,0.3-0.3l0.4-0.1c0.4-0.1,0.6-0.4,0.6-0.9c0-0.4-0.3-1.3-0.8-2.6
	l-0.6-1.7c-0.2-0.5-0.3-0.7-0.4-0.8C152.4,108.7,152.1,108.7,151.7,108.7z M151.8,106.7l-2-5l-0.1-0.3c-0.1-0.3-0.2-0.4-0.3-0.4
	c-0.1,0-0.1,0.1-0.2,0.2l-2.4,5.4c-0.1,0.2-0.2,0.4-0.2,0.5c0,0.2,0.2,0.3,0.6,0.3l0.3,0h3.8c0.4,0,0.6-0.1,0.6-0.3
	c0-0.1,0-0.2-0.1-0.3L151.8,106.7z M168.2,106.7l3.5,5.1l0.4,0.6c1.1,1.6,2.1,2.4,3,2.4l0.4,0c0.2,0,0.2,0.1,0.2,0.2
	c0,0.1-0.2,0.2-0.6,0.3c-0.4,0.1-0.8,0.2-1.2,0.2c-0.8,0-1.4-0.2-2-0.6c-0.6-0.4-1.2-1.1-1.8-2l-3.1-4.7l-0.2-0.3
	c-0.2-0.3-0.5-0.5-1-0.5l-1.7,0l-0.3,0.1c-0.1,0.1-0.2,0.2-0.2,0.4v3.9l0,0.5c0,0.7,0,1.2,0.1,1.5c0.1,0.3,0.2,0.5,0.5,0.7
	c0.4,0.3,0.9,0.5,1.7,0.5c0.3,0,0.5,0.1,0.5,0.3c0,0.2-0.1,0.2-0.4,0.2c-0.1,0-0.4,0-0.7-0.1c-0.3,0-0.9-0.1-1.6-0.1l-1.2,0l-0.7,0
	c-0.3,0-0.6,0-1,0.1c-0.3,0-0.5,0-0.7,0c-0.2,0-0.3-0.1-0.3-0.3c0-0.1,0.1-0.2,0.3-0.2c0.7-0.1,1.1-0.4,1.3-0.9
	c0.2-0.5,0.3-1.4,0.3-2.8v-9l0-1.3c0-1.3-0.5-2-1.4-2.2l-0.6-0.1c-0.3,0-0.4-0.1-0.4-0.3c0-0.2,0.1-0.3,0.4-0.3c0.1,0,0.4,0,0.9,0.1
	c0.3,0,0.7,0,1.1,0c0.4,0,1,0,2-0.1c0.7,0,1.3-0.1,1.8-0.1c1.9,0,3.4,0.4,4.3,1.1c1,0.7,1.5,1.8,1.5,3.2
	C171.3,104.2,170.3,105.6,168.2,106.7z M164.5,106.4h1.4c1.1,0,2-0.3,2.6-0.9c0.6-0.6,0.9-1.4,0.9-2.5c0-1.2-0.4-2.2-1.3-3
	c-0.9-0.8-1.9-1.2-3.3-1.2c-0.5,0-0.8,0.1-1,0.2c-0.2,0.2-0.3,0.5-0.3,0.9l0,0.4v5.1c0,0.4,0.1,0.6,0.2,0.7
	C163.9,106.3,164.1,106.4,164.5,106.4z M191.8,102.6c-0.7,1.2-1.2,2.1-1.4,2.6l-1.1,2.4l-1.3,2.6c-0.1,0.2-0.4,0.9-1.1,2.3
	c-0.3,0.6-0.5,1.1-0.7,1.4c-0.1,0.2-0.2,0.4-0.2,0.5c-0.2,0.4-0.3,0.6-0.5,0.6c-0.2,0-0.4-0.2-0.6-0.6c0-0.1-0.1-0.3-0.4-0.7
	l-0.2-0.5l-4.7-10.1l-0.3,6.2c0,0.5,0,1.5,0,3.1c0,1.5,0.5,2.3,1.5,2.4c0.5,0.1,0.8,0.2,0.8,0.4c0,0.2-0.1,0.3-0.4,0.3
	c-0.2,0-0.3,0-0.5,0c-0.9-0.1-1.7-0.1-2.2-0.1c-0.6,0-1.2,0-1.7,0.1c-0.2,0-0.3,0-0.4,0c-0.2,0-0.4-0.1-0.4-0.3
	c0-0.1,0.1-0.2,0.3-0.3c0.6-0.1,1-0.4,1.3-0.9c0.2-0.4,0.4-1.2,0.4-2.2l0.2-3.6c0.1-2.6,0.2-4.3,0.2-5c0-1.5-0.2-2.6-0.6-3.3
	c-0.4-0.7-1-1.2-2-1.3c-0.2,0-0.4-0.1-0.4-0.3c0-0.2,0.1-0.3,0.3-0.3c0.1,0,0.2,0,0.4,0c0.1,0,0.4,0,0.8,0c0.7,0,1.1,0,1.3,0
	c0.2,0,0.3,0,0.5,0c0.4,0,0.7,0.3,0.9,0.8l0.1,0.3l5.2,11.2l0.6,1.3c0.1,0.2,0.2,0.3,0.2,0.3c0.1,0,0.1-0.1,0.2-0.2l0.2-0.3l0.1-0.3
	l5.9-12.6c0.1-0.3,0.2-0.4,0.3-0.5c0.1-0.1,0.2-0.1,0.3-0.1c0.1,0,0.2,0,0.5,0c0.1,0,0.2,0,0.4,0c0.5,0,0.9,0,1.3-0.1
	c0.2,0,0.3,0,0.4,0c0.2,0,0.2,0.1,0.2,0.2c0,0.2-0.1,0.3-0.2,0.3l-0.5,0.1c-0.4,0.1-0.7,0.4-0.9,0.8c-0.2,0.4-0.3,1.1-0.3,2.1l0.1,3
	l0.2,6.8l0.1,1.6c0,0.6,0.1,1.1,0.3,1.4c0.2,0.3,0.7,0.5,1.3,0.5c0.4,0.1,0.7,0.2,0.7,0.3c0,0.2-0.2,0.2-0.5,0.2c-0.1,0-0.2,0-0.3,0
	l-1-0.1c-0.3,0-0.7,0-1,0c-0.3,0-0.7,0-1.2,0.1c-0.9,0-1.4,0.1-1.5,0.1c-0.2,0-0.4-0.1-0.4-0.2c0-0.1,0.1-0.2,0.3-0.3
	c0.5-0.1,0.8-0.4,1-0.7c0.2-0.3,0.3-0.8,0.3-1.6l0-2L191.8,102.6z M207.5,108.7H203c-0.6,0-1,0-1.2,0.2c-0.2,0.1-0.4,0.4-0.6,1
	l-0.8,1.8c-0.4,0.8-0.6,1.5-0.6,1.9c0,0.4,0.1,0.7,0.3,0.9c0.2,0.2,0.6,0.3,1.2,0.5c0.3,0,0.4,0.1,0.4,0.3c0,0.1-0.1,0.2-0.3,0.2
	c-0.1,0-0.2,0-0.4,0l-1.2-0.1c-0.4,0-0.9,0-1.4,0c-0.2,0-0.4,0-0.6,0c-0.4,0-0.7,0.1-0.7,0.1c-0.2,0-0.3-0.1-0.3-0.2
	c0-0.1,0.1-0.2,0.2-0.3l0.5-0.1c0.2-0.1,0.4-0.3,0.7-0.6c0.3-0.4,0.5-0.7,0.7-1.1l0.4-0.8l6.4-14.3c0.1-0.3,0.2-0.4,0.4-0.4
	c0.1,0,0.2,0.1,0.3,0.4l5.4,13.8l0.3,0.7c0.4,1,0.7,1.6,1,1.9c0.3,0.2,0.8,0.4,1.6,0.6c0.3,0,0.4,0.2,0.4,0.3c0,0.1-0.1,0.2-0.4,0.2
	c-0.1,0-0.2,0-0.5,0c-0.4,0-1.2-0.1-2.3-0.1c-1.2,0-1.9,0-2.2,0.1c-0.2,0-0.3,0.1-0.4,0.1c-0.2,0-0.3-0.1-0.3-0.3
	c0-0.1,0.1-0.2,0.3-0.3l0.4-0.1c0.4-0.1,0.6-0.4,0.6-0.9c0-0.4-0.3-1.3-0.8-2.6l-0.6-1.7c-0.2-0.5-0.3-0.7-0.4-0.8
	C208.3,108.7,208,108.7,207.5,108.7z M207.7,106.7l-2-5l-0.1-0.3c-0.1-0.3-0.2-0.4-0.3-0.4c-0.1,0-0.1,0.1-0.2,0.2l-2.4,5.4
	c-0.1,0.2-0.2,0.4-0.2,0.5c0,0.2,0.2,0.3,0.6,0.3l0.3,0h3.8c0.4,0,0.6-0.1,0.6-0.3c0-0.1,0-0.2-0.1-0.3L207.7,106.7z M126.8,31.3
	l12.5,3.5c-0.1-0.5-0.2-1-0.3-1.6l-12.5-3.6C126.6,30.1,126.7,30.7,126.8,31.3z M123.4,39.4l14.5,3.1c0.3-0.4,0.6-0.9,0.8-1.4
	l-12.7-2.8C125.5,39,124.6,39.4,123.4,39.4z M116.3,26.6l-12.9-4v-1.7L78.5,46.2l-0.3,2.1l25.2-23.8l13.1,3.9L116.3,26.6z
	 M140.2,48.3l-10.6-1.8c-1.3,0.3-2.5,0.5-3.7,0.7l-22.4-3.7v-1.8L76.5,58.4l-0.3,2.2l27.2-15.1l40.1,6.3
	C142.5,50.5,141.4,49.4,140.2,48.3z M135.5,24.3l-32.1-12.2v-1.7L79.5,40.1l-0.3,2.1L103.4,14l33,12.1
	C136.1,25.5,135.8,24.9,135.5,24.3z M125.5,26.6l12.7,4c-0.2-0.6-0.4-1.1-0.6-1.7l-13.1-4.2C124.9,25.2,125.2,25.9,125.5,26.6z
	 M115.9,21.7l-12.4-4.3v-1.7L79,43.1l-0.3,2.1l24.7-26l12.6,4.2L115.9,21.7z M119.3,55.7l-15.8-1.9v-1.8L75.6,64.5l-0.4,2.2
	l28.2-10.8l16.1,1.7L119.3,55.7z M121.3,75.2l-17.9-0.5v-1.8l-29.8,3.7l-0.4,2.2l30.2-2.2l45.2,0.8c0.2-0.3,0.4-0.5,0.6-0.8
	c0.2-0.3,0.3-0.5,0.5-0.8l0,0c0.1-0.1,0.2-0.2,0.2-0.3c0.2-0.4,0.4-0.8,0.5-1.2l-29.2-0.7L121.3,75.2z M120.3,65.5l-16.9-1.2v-1.8
	l-28.9,8.1l-0.4,2.2l29.2-6.5l17.1,1L120.3,65.5z M119.8,60.6l-16.3-1.5v-1.8L75.1,67.5l-0.4,2.2l28.7-8.7l16.6,1.4L119.8,60.6z
	 M118.7,50.9l-15.3-2.2v-1.8L76,61.4l-0.4,2.2l27.7-13l15.5,2.1L118.7,50.9z M131.9,18.9l-28.4-12V5.2L80,37l-0.3,2.1l23.8-30.3
	L133.5,21C133,20.3,132.4,19.6,131.9,18.9z M123.2,11.2l-19.7-9.5V0l-23,34L80.1,36l23.3-32.4L128.3,15
	C126.7,13.5,125,12.2,123.2,11.2z M120.8,70.3l-17.4-0.7v-1.8l-29.4,5.9l-0.4,2.2l29.7-4.3l47.4,1.8c0.2-0.9,0.4-1.9,0.4-2.9
	l-20.1-0.9C128.4,70.9,122.9,70.3,120.8,70.3z M121.9,80.1L103.4,80v-1.8l-30.3,1.6L72.7,82h30.6h0.1h35.4c3,0,5.6-0.9,7.7-2.4
	c0.2-0.1,0.4-0.3,0.6-0.5c0.1-0.1,0.3-0.2,0.4-0.3l-25.8-0.2L121.9,80.1z M139.5,37.3l-12.4-3.2c0,0.6,0,1.1-0.1,1.6l12.4,3
	C139.5,38.4,139.5,37.8,139.5,37.3z M116.8,31.4l-13.4-3.6v-1.7L78,49.2l-0.3,2.1l25.7-21.6l13.6,3.5L116.8,31.4z M133.4,65.5
	c-0.1,1-0.5,1.9-0.9,2.5l18.7,1.1c0-1-0.2-2-0.4-3l-17.3-1.2C133.5,65.1,133.4,65.3,133.4,65.5z M137.9,46.6
	c-0.9-0.7-1.7-1.3-2.7-1.9c-0.1,0-0.1-0.1-0.1-0.1l-31.7-6.3v-1.8L77,55.3l-0.3,2.2l26.7-17.3L137.9,46.6L137.9,46.6z M117.3,36.3
	L103.4,33v-1.8l-25.9,21l-0.3,2.1l26.2-19.5l14.1,3.1L117.3,36.3z M128.7,52.6c0.5,0.4,1,1,1.5,1.6l16.5,2.1
	c-0.6-1.1-1.3-2.2-2.1-3.1l-19.6-2.6C126.5,51,127.8,51.7,128.7,52.6z M132.9,59l16,1.6c-0.5-1.1-0.9-2.1-1.4-3.1l-16.1-1.8
	C132,56.7,132.5,57.7,132.9,59z M133.6,63.6l16.9,1.3c-0.1-0.4-0.3-0.9-0.4-1.3c-0.2-0.6-0.4-1.1-0.7-1.7l-16.1-1.5
	C133.5,61.4,133.6,62.4,133.6,63.6z M5.3,105.6h2.1c2.1,0,3.1-0.9,3.1-2.8c0-1.2-0.4-2.1-1.3-2.9c-0.9-0.8-2-1.2-3.3-1.2
	c-0.6,0-1,0.1-1.1,0.2c-0.2,0.2-0.3,0.5-0.3,1l0,5c0,0.3,0,0.5,0.1,0.5C4.7,105.6,4.9,105.6,5.3,105.6z"/>
</svg>
