<?xml version="1.0" encoding="utf-8"?>
<!-- Generator: Adobe Illustrator 22.0.0, SVG Export Plug-In . SVG Version: 6.00 Build 0)  -->
<svg version="1.1" id="Layer_1" xmlns="http://www.w3.org/2000/svg" xmlns:xlink="http://www.w3.org/1999/xlink" x="0px" y="0px"
	 viewBox="0 0 54.1 48.1" style="enable-background:new 0 0 54.1 48.1;" xml:space="preserve">
<path d="M37.8,7.8l8.5,8.5c0.4,0.4,0.4,0.9,0,1.3L25.8,38.1l-8.7,1c-1.2,0.1-2.2-0.9-2-2l1-8.7L36.5,7.8C36.9,7.5,37.5,7.5,37.8,7.8
	L37.8,7.8z M53.1,5.7l-4.6-4.6c-1.4-1.4-3.8-1.4-5.2,0L40,4.4c-0.4,0.4-0.4,0.9,0,1.3l8.5,8.5c0.4,0.4,0.9,0.4,1.3,0l3.3-3.3
	C54.5,9.4,54.5,7.1,53.1,5.7z M36.1,32.5v9.6H6V12h21.6c0.3,0,0.6-0.1,0.8-0.3l3.8-3.8C32.9,7.2,32.4,6,31.4,6H4.5C2,6,0,8,0,10.5
	v33.1c0,2.5,2,4.5,4.5,4.5h33.1c2.5,0,4.5-2,4.5-4.5V28.8c0-1-1.2-1.5-1.9-0.8l-3.8,3.8C36.2,32,36.1,32.2,36.1,32.5z"/>
</svg>
