<?xml version="1.0" encoding="utf-8"?>
<!-- Generator: Adobe Illustrator 22.0.0, SVG Export Plug-In . SVG Version: 6.00 Build 0)  -->
<svg version="1.1" id="Layer_1" xmlns="http://www.w3.org/2000/svg" xmlns:xlink="http://www.w3.org/1999/xlink" x="0px" y="0px"
	 viewBox="0 0 88 108.8" style="enable-background:new 0 0 88 108.8;" xml:space="preserve">
<style type="text/css">
	.st0{stroke:#000000;stroke-width:5;stroke-miterlimit:10;}
</style>
<g transform="translate(600 600) scale(0.69 0.69) rotate(0) translate(-600 -600)">
	<path class="st0" d="M-145.7-135.5l-8.7-97.5c-0.2-1.9-1.8-3.4-3.8-3.4h-18.2c0-16.2-13.3-29.4-29.5-29.4s-29.4,13.2-29.5,29.4
		h-18.2c-2,0-3.6,1.5-3.8,3.4l-8.7,97.5c0,0.1,0,0.2,0,0.3c0,10.9,10,19.7,22.3,19.7h75.7c12.3,0,22.3-8.9,22.3-19.7
		C-145.7-135.3-145.7-135.4-145.7-135.5z M-205.8-258.4c12.1,0,21.9,9.8,21.9,21.9h-43.9C-227.7-248.6-217.9-258.4-205.8-258.4z
		 M-168-123h-75.7c-8.1,0-14.7-5.4-14.8-12l8.3-93.9h14.8v13.1c0,2.1,1.7,3.8,3.8,3.8s3.8-1.7,3.8-3.8V-229h43.9v13.1
		c0,2.1,1.7,3.8,3.8,3.8c2.1,0,3.8-1.7,3.8-3.8V-229h14.8l8.3,93.9C-153.3-128.4-159.9-123-168-123z"/>
</g>
</svg>
