<?xml version="1.0" encoding="utf-8"?>
<!-- Generator: Adobe Illustrator 22.0.0, SVG Export Plug-In . SVG Version: 6.00 Build 0)  -->
<svg version="1.1" id="Layer_1" xmlns="http://www.w3.org/2000/svg" xmlns:xlink="http://www.w3.org/1999/xlink" x="0px" y="0px"
	 viewBox="0 0 483.4 483.3" style="enable-background:new 0 0 483.4 483.3;" xml:space="preserve">
<style type="text/css">
	.st0{fill:#FFFFFF;stroke:#FFFFFF;stroke-width:4;stroke-miterlimit:10;}
</style>
<g transform="translate(600 600) scale(0.69 0.69) rotate(0) translate(-600 -600)">
	<g>
		<path class="st0" d="M116.1,413.6c30,9.6,57.6,14.4,82.8,14.4c42,0,78-13.2,103.2-38.4l46.8-46.8c10.8-10.8,18-26.4,18-43.2
			c0-15.6-6-31.2-18-43.2l-99.6-99.6c-10.8-10.8-26.4-16.8-42-16.8s-31.2,6-43.2,18l-37.2,37.2c-7.2,7.2-18,8.4-26.4,2.4
			c-25.2-19.2-50.4-39.6-73.2-62.4C4.5,112.4-17.1,87.2-35.1,62c-6-8.4-4.8-19.2,2.4-26.4l0,0L4.5-1.6c10.8-10.8,18-26.4,18-43.2
			c0-15.6-6-31.2-18-43.2l-99.6-99.6c-10.8-10.8-26.4-18-43.2-18c-15.6,0-31.2,6-43.2,18l-46.8,46.8
			c-81.6,81.6-28.8,261.6,118.8,409.2C-38.7,339.2,41.7,389.6,116.1,413.6z M-198.3-112l46.8-46.8c3.6-3.6,8.4-6,14.4-6
			s10.8,2.4,14.4,6l99.6,99.6c3.6,3.6,6,8.4,6,14.4s-2.4,10.8-6,14.4L-60.3,6.8c-20.4,20.4-24,54-6,78c20.4,27.6,42,52.8,67.2,78
			c24,24,50.4,46.8,78,67.2c24,16.8,57.6,14.4,78-6l37.2-37.2c7.2-7.2,21.6-7.2,28.8,0l99.6,99.6c3.6,3.6,6,8.4,6,14.4
			s-2.4,10.8-6,14.4l-48,45.6c-30,30-81.6,34.8-146.4,14.4C58.5,353.6-14.7,306.8-79.5,242C-206.7,113.6-261.9-48.4-198.3-112z"/>
		<path class="st0" d="M112.5-228.4c61.2,20.4,120,57.6,169.2,108c50.4,50.4,87.6,109.2,108,169.2c2.4,8.4,10.8,13.2,19.2,13.2
			c2.4,0,4.8,0,6-1.2c10.8-3.6,15.6-14.4,12-25.2C405.3-29.2,365.7-94,310.5-148c-54-54-118.8-94.8-184.8-117.6
			c-10.8-3.6-21.6,2.4-25.2,12C96.9-242.8,101.7-232,112.5-228.4z"/>
		<path class="st0" d="M70.5-103.6c42,14.4,82.8,40.8,118.8,76.8S251.7,50,266.1,92c2.4,8.4,10.8,13.2,19.2,13.2c2.4,0,4.8,0,6-1.2
			c10.8-3.6,15.6-14.4,12-25.2c-16.8-48-45.6-94.8-86.4-134.4c-40.8-40.8-86.4-70.8-134.4-86.4c-10.8-3.6-21.6,2.4-25.2,12
			C54.9-119.2,59.7-107.2,70.5-103.6z"/>
	</g>
</g>
</svg>
