<?xml version="1.0" encoding="utf-8"?>
<!-- Generator: Adobe Illustrator 22.0.0, SVG Export Plug-In . SVG Version: 6.00 Build 0)  -->
<svg version="1.1" id="Warstwa_1" xmlns="http://www.w3.org/2000/svg" xmlns:xlink="http://www.w3.org/1999/xlink" x="0px" y="0px"
	 viewBox="0 0 87 87" style="enable-background:new 0 0 87 87;" xml:space="preserve">
<style type="text/css">
	.st0{fill:#008a80;}
</style>
<g>
	<path class="st0" d="M43.5,0C19.5,0,0,19.5,0,43.5C0,67.5,19.5,87,43.5,87C67.5,87,87,67.5,87,43.5C87,19.5,67.5,0,43.5,0z
		 M43.5,85C20.6,85,2,66.4,2,43.5C2,20.6,20.6,2,43.5,2C66.4,2,85,20.6,85,43.5C85,66.4,66.4,85,43.5,85z"/>
	<path class="st0" d="M61.5,43.1c-0.1-0.1-0.1-0.2-0.2-0.3L47.1,28.6c-0.4-0.4-1-0.4-1.4,0s-0.4,1,0,1.4l12.5,12.5H26.5
		c-0.6,0-1,0.4-1,1s0.4,1,1,1h31.6L45.6,57c-0.4,0.4-0.4,1,0,1.4c0.2,0.2,0.5,0.3,0.7,0.3s0.5-0.1,0.7-0.3l14.2-14.2
		c0.1-0.1,0.2-0.2,0.2-0.3C61.6,43.7,61.6,43.4,61.5,43.1z"/>
</g>
</svg>
