<?xml version="1.0" encoding="utf-8"?>
<!-- Generator: Adobe Illustrator 22.0.0, SVG Export Plug-In . SVG Version: 6.00 Build 0)  -->
<svg version="1.1" id="Warstwa_1" xmlns="http://www.w3.org/2000/svg" xmlns:xlink="http://www.w3.org/1999/xlink" x="0px" y="0px"
	 viewBox="0 0 87 87" style="enable-background:new 0 0 87 87;" xml:space="preserve">
<style type="text/css">
	.st0{fill:#008a80;}
</style>
<g>
	<path class="st0" d="M43.5,0C67.5,0,87,19.5,87,43.5C87,67.5,67.5,87,43.5,87C19.5,87,0,67.5,0,43.5C0,19.5,19.5,0,43.5,0z
		 M43.5,85C66.4,85,85,66.4,85,43.5C85,20.6,66.4,2,43.5,2C20.6,2,2,20.6,2,43.5C2,66.4,20.6,85,43.5,85z"/>
	<path class="st0" d="M25.6,43.1c0.1-0.1,0.1-0.2,0.2-0.3L40,28.6c0.4-0.4,1-0.4,1.4,0s0.4,1,0,1.4L28.9,42.5h31.6c0.6,0,1,0.4,1,1
		s-0.4,1-1,1H28.9L41.4,57c0.4,0.4,0.4,1,0,1.4c-0.2,0.2-0.5,0.3-0.7,0.3s-0.5-0.1-0.7-0.3L25.8,44.2c-0.1-0.1-0.2-0.2-0.2-0.3
		C25.5,43.7,25.5,43.4,25.6,43.1z"/>
</g>
</svg>
